# MagicaVoxel @ Ephtracy

# group
o 

# material
mtllib tile_09.mtl
usemtl palette

# normals
vn -1 0 0
vn 1 0 0
vn 0 0 1
vn 0 0 -1
vn 0 -1 0
vn 0 1 0

# texcoords
vt 0.537109 0.5
vt 0.814453 0.5
vt 0.892578 0.5
vt 0.986328 0.5

# verts
v -0.4 0 0.4
v -0.4 0 -0.4
v -0.4 0.1 0.4
v -0.4 0.1 -0.4
v -0.4 0.2 0.4
v -0.4 0.2 -0.4
v -0.2 0.2 0.2
v -0.2 0.2 0.1
v -0.2 0.2 -0.2
v -0.2 0.2 -0.3
v -0.2 0.6 0.1
v -0.2 0.6 -0.2
v -0.2 0.6 -0.3
v -0.2 0.6 -0.4
v -0.2 0.7 0
v -0.2 0.7 -0.1
v -0.2 0.7 -0.2
v -0.2 0.7 -0.3
v -0.2 0.8 0.2
v -0.2 0.8 0
v -0.2 0.8 -0.1
v -0.2 0.8 -0.2
v -0.2 0.8 -0.3
v -0.2 0.8 -0.4
v -0.1 0.2 0.1
v -0.1 0.2 -0.2
v -0.1 0.2 -0.3
v -0.1 0.2 -0.4
v -0.1 0.6 0.1
v -0.1 0.6 -0.2
v -0.1 0.6 -0.3
v -0.1 0.6 -0.4
v 0.1 0.7 0.2
v 0.1 0.7 0.1
v 0.1 0.7 -0.1
v 0.1 0.7 -0.4
v 0.1 0.8 0.2
v 0.1 0.8 0.1
v 0.1 0.8 -0.1
v 0.1 0.8 -0.4
v 0.2 0.2 0.2
v 0.2 0.2 0.1
v 0.2 0.6 0.2
v 0.2 0.6 0.1
v 0.3 0.2 0
v 0.3 0.2 -0.2
v 0.3 0.6 0
v 0.3 0.6 -0.2
v 0.3 0.7 0.2
v 0.3 0.7 0.1
v 0.3 0.8 0.2
v 0.3 0.8 0.1
v -0.1 0.2 0.2
v -0.1 0.2 0.1
v -0.1 0.6 0.2
v -0.1 0.6 0.1
v -0.1 0.7 0.1
v -0.1 0.7 0
v -0.1 0.7 -0.1
v -0.1 0.7 -0.2
v -0.1 0.7 -0.3
v -0.1 0.7 -0.4
v -0.1 0.8 0.1
v -0.1 0.8 0
v -0.1 0.8 -0.1
v -0.1 0.8 -0.2
v -0.1 0.8 -0.3
v -0.1 0.8 -0.4
v 0 0.2 0
v 0 0.2 -0.3
v 0 0.6 0
v 0 0.6 -0.3
v 0 0.7 0.2
v 0 0.7 0.1
v 0 0.8 0.2
v 0 0.8 0.1
v 0.2 0.2 -0.3
v 0.2 0.2 -0.4
v 0.2 0.6 -0.2
v 0.2 0.6 -0.3
v 0.2 0.7 0.2
v 0.2 0.7 0.1
v 0.2 0.8 0.2
v 0.2 0.8 0.1
v 0.2 0.8 -0.2
v 0.2 0.8 -0.4
v 0.3 0.2 0.2
v 0.3 0.2 0.1
v 0.3 0.6 0.2
v 0.3 0.6 0.1
v 0.4 0 0.4
v 0.4 0 -0.4
v 0.4 0.1 0.4
v 0.4 0.1 0.1
v 0.4 0.1 -0.4
v 0.4 0.2 0.4
v 0.4 0.2 0.1
v 0.4 0.2 -0.2
v 0.4 0.2 -0.4
v 0.4 0.6 0.2
v 0.4 0.6 0.1
v 0.4 0.7 0.1
v 0.4 0.7 -0.1
v 0.4 0.8 0.2
v 0.4 0.8 0.1
v 0.4 0.8 -0.1
v 0.4 0.8 -0.2
v -0.4 0 0.4
v -0.4 0.1 0.4
v -0.4 0.2 0.4
v 0.4 0 0.4
v 0.4 0.1 0.4
v 0.4 0.2 0.4
v -0.2 0.2 0.2
v -0.2 0.8 0.2
v -0.1 0.2 0.2
v -0.1 0.6 0.2
v 0 0.7 0.2
v 0 0.8 0.2
v 0.1 0.7 0.2
v 0.1 0.8 0.2
v 0.2 0.2 0.2
v 0.2 0.6 0.2
v 0.2 0.7 0.2
v 0.2 0.8 0.2
v 0.3 0.2 0.2
v 0.3 0.6 0.2
v 0.3 0.7 0.2
v 0.3 0.8 0.2
v 0.4 0.6 0.2
v 0.4 0.8 0.2
v -0.1 0.2 0.1
v -0.1 0.6 0.1
v 0.2 0.2 0.1
v 0.2 0.6 0.1
v 0.3 0.2 0.1
v 0.3 0.6 0.1
v 0.4 0.2 0.1
v 0.4 0.6 0.1
v -0.2 0.7 -0.1
v -0.2 0.8 -0.1
v -0.1 0.7 -0.1
v -0.1 0.8 -0.1
v 0.1 0.7 -0.1
v 0.1 0.8 -0.1
v 0.4 0.7 -0.1
v 0.4 0.8 -0.1
v -0.2 0.2 -0.2
v -0.2 0.6 -0.2
v -0.1 0.2 -0.2
v -0.1 0.6 -0.2
v -0.2 0.7 -0.3
v -0.2 0.8 -0.3
v -0.1 0.7 -0.3
v -0.1 0.8 -0.3
v 0 0.2 -0.3
v 0 0.6 -0.3
v 0.2 0.2 -0.3
v 0.2 0.6 -0.3
v -0.2 0.2 0.1
v -0.2 0.6 0.1
v -0.1 0.2 0.1
v -0.1 0.6 0.1
v -0.1 0.7 0.1
v -0.1 0.8 0.1
v 0 0.7 0.1
v 0 0.8 0.1
v 0.1 0.7 0.1
v 0.1 0.8 0.1
v 0.2 0.7 0.1
v 0.2 0.8 0.1
v 0.3 0.7 0.1
v 0.3 0.8 0.1
v 0.4 0.7 0.1
v 0.4 0.8 0.1
v -0.2 0.7 0
v -0.2 0.8 0
v -0.1 0.7 0
v -0.1 0.8 0
v 0 0.2 0
v 0 0.6 0
v 0.3 0.2 0
v 0.3 0.6 0
v -0.2 0.7 -0.2
v -0.2 0.8 -0.2
v -0.1 0.7 -0.2
v -0.1 0.8 -0.2
v 0.2 0.6 -0.2
v 0.2 0.8 -0.2
v 0.3 0.2 -0.2
v 0.3 0.6 -0.2
v 0.4 0.2 -0.2
v 0.4 0.8 -0.2
v -0.2 0.2 -0.3
v -0.2 0.6 -0.3
v -0.1 0.2 -0.3
v -0.1 0.6 -0.3
v -0.4 0 -0.4
v -0.4 0.1 -0.4
v -0.4 0.2 -0.4
v -0.2 0.6 -0.4
v -0.2 0.8 -0.4
v -0.1 0.1 -0.4
v -0.1 0.2 -0.4
v -0.1 0.6 -0.4
v -0.1 0.7 -0.4
v -0.1 0.8 -0.4
v 0.1 0.7 -0.4
v 0.1 0.8 -0.4
v 0.2 0.2 -0.4
v 0.2 0.8 -0.4
v 0.4 0 -0.4
v 0.4 0.1 -0.4
v 0.4 0.2 -0.4
v -0.4 0 0.4
v 0.4 0 0.4
v -0.4 0 -0.4
v 0.4 0 -0.4
v -0.1 0.6 0.2
v 0.2 0.6 0.2
v 0.3 0.6 0.2
v 0.4 0.6 0.2
v -0.2 0.6 0.1
v -0.1 0.6 0.1
v 0.2 0.6 0.1
v 0.3 0.6 0.1
v 0.4 0.6 0.1
v 0 0.6 0
v 0.3 0.6 0
v -0.2 0.6 -0.2
v -0.1 0.6 -0.2
v 0.2 0.6 -0.2
v 0.3 0.6 -0.2
v -0.2 0.6 -0.3
v -0.1 0.6 -0.3
v 0 0.6 -0.3
v 0.2 0.6 -0.3
v -0.2 0.6 -0.4
v -0.1 0.6 -0.4
v -0.4 0.2 0.4
v 0.4 0.2 0.4
v -0.2 0.2 0.2
v -0.1 0.2 0.2
v 0.2 0.2 0.2
v 0.3 0.2 0.2
v -0.2 0.2 0.1
v -0.1 0.2 0.1
v 0.2 0.2 0.1
v 0.3 0.2 0.1
v 0.4 0.2 0.1
v 0 0.2 0
v 0.3 0.2 0
v -0.2 0.2 -0.2
v -0.1 0.2 -0.2
v 0.3 0.2 -0.2
v 0.4 0.2 -0.2
v -0.2 0.2 -0.3
v -0.1 0.2 -0.3
v 0 0.2 -0.3
v 0.2 0.2 -0.3
v -0.4 0.2 -0.4
v -0.1 0.2 -0.4
v 0.2 0.2 -0.4
v 0.4 0.2 -0.4
v 0 0.7 0.2
v 0.1 0.7 0.2
v 0.2 0.7 0.2
v 0.3 0.7 0.2
v -0.1 0.7 0.1
v 0 0.7 0.1
v 0.1 0.7 0.1
v 0.2 0.7 0.1
v 0.3 0.7 0.1
v 0.4 0.7 0.1
v -0.2 0.7 0
v -0.1 0.7 0
v -0.2 0.7 -0.1
v -0.1 0.7 -0.1
v 0.1 0.7 -0.1
v 0.4 0.7 -0.1
v -0.2 0.7 -0.2
v -0.1 0.7 -0.2
v -0.2 0.7 -0.3
v -0.1 0.7 -0.3
v -0.1 0.7 -0.4
v 0.1 0.7 -0.4
v -0.2 0.8 0.2
v 0 0.8 0.2
v 0.1 0.8 0.2
v 0.2 0.8 0.2
v 0.3 0.8 0.2
v 0.4 0.8 0.2
v -0.1 0.8 0.1
v 0 0.8 0.1
v 0.1 0.8 0.1
v 0.2 0.8 0.1
v 0.3 0.8 0.1
v 0.4 0.8 0.1
v -0.2 0.8 0
v -0.1 0.8 0
v -0.2 0.8 -0.1
v -0.1 0.8 -0.1
v 0.1 0.8 -0.1
v 0.4 0.8 -0.1
v -0.2 0.8 -0.2
v -0.1 0.8 -0.2
v 0.2 0.8 -0.2
v 0.4 0.8 -0.2
v -0.2 0.8 -0.3
v -0.1 0.8 -0.3
v -0.2 0.8 -0.4
v -0.1 0.8 -0.4
v 0.1 0.8 -0.4
v 0.2 0.8 -0.4

# faces
f 3/1/1 2/1/1 1/1/1
f 4/1/1 2/1/1 3/1/1
f 5/3/1 4/3/1 3/3/1
f 6/3/1 4/3/1 5/3/1
f 11/4/1 8/4/1 7/4/1
f 12/4/1 10/4/1 9/4/1
f 13/4/1 10/4/1 12/4/1
f 15/4/1 12/4/1 11/4/1
f 15/4/1 14/4/1 13/4/1
f 15/4/1 13/4/1 12/4/1
f 16/4/1 14/4/1 15/4/1
f 17/4/1 14/4/1 16/4/1
f 18/4/1 14/4/1 17/4/1
f 19/4/1 11/4/1 7/4/1
f 19/4/1 15/4/1 11/4/1
f 20/4/1 15/4/1 19/4/1
f 21/4/1 17/4/1 16/4/1
f 22/4/1 17/4/1 21/4/1
f 23/4/1 14/4/1 18/4/1
f 24/4/1 14/4/1 23/4/1
f 29/4/1 26/4/1 25/4/1
f 30/4/1 26/4/1 29/4/1
f 31/4/1 28/4/1 27/4/1
f 32/4/1 28/4/1 31/4/1
f 37/4/1 34/4/1 33/4/1
f 38/4/1 34/4/1 37/4/1
f 39/4/1 36/4/1 35/4/1
f 40/4/1 36/4/1 39/4/1
f 43/4/1 42/4/1 41/4/1
f 44/4/1 42/4/1 43/4/1
f 47/4/1 46/4/1 45/4/1
f 48/4/1 46/4/1 47/4/1
f 51/4/1 50/4/1 49/4/1
f 52/4/1 50/4/1 51/4/1
f 53/4/2 54/4/2 55/4/2
f 55/4/2 54/4/2 56/4/2
f 57/4/2 58/4/2 63/4/2
f 63/4/2 58/4/2 64/4/2
f 59/4/2 60/4/2 65/4/2
f 65/4/2 60/4/2 66/4/2
f 61/4/2 62/4/2 67/4/2
f 67/4/2 62/4/2 68/4/2
f 69/4/2 70/4/2 71/4/2
f 71/4/2 70/4/2 72/4/2
f 73/4/2 74/4/2 75/4/2
f 75/4/2 74/4/2 76/4/2
f 77/4/2 78/4/2 80/4/2
f 81/4/2 82/4/2 83/4/2
f 83/4/2 82/4/2 84/4/2
f 79/4/2 80/4/2 85/4/2
f 80/4/2 78/4/2 86/4/2
f 85/4/2 80/4/2 86/4/2
f 87/4/2 88/4/2 89/4/2
f 89/4/2 88/4/2 90/4/2
f 91/1/2 92/1/2 93/1/2
f 93/1/2 92/1/2 94/1/2
f 94/1/2 92/1/2 95/1/2
f 93/3/2 94/3/2 96/3/2
f 94/2/2 95/2/2 97/2/2
f 96/3/2 94/3/2 97/3/2
f 97/2/2 95/2/2 98/2/2
f 98/2/2 95/2/2 99/2/2
f 97/4/2 98/4/2 101/4/2
f 101/4/2 98/4/2 102/4/2
f 100/4/2 101/4/2 102/4/2
f 102/4/2 98/4/2 103/4/2
f 100/4/2 102/4/2 104/4/2
f 104/4/2 102/4/2 105/4/2
f 103/4/2 98/4/2 106/4/2
f 106/4/2 98/4/2 107/4/2
f 111/1/3 109/1/3 108/1/3
f 112/3/3 110/3/3 109/3/3
f 112/1/3 109/1/3 111/1/3
f 113/3/3 110/3/3 112/3/3
f 116/4/3 115/4/3 114/4/3
f 117/4/3 115/4/3 116/4/3
f 118/4/3 115/4/3 117/4/3
f 119/4/3 115/4/3 118/4/3
f 120/4/3 118/4/3 117/4/3
f 123/4/3 120/4/3 117/4/3
f 123/4/3 121/4/3 120/4/3
f 124/4/3 121/4/3 123/4/3
f 125/4/3 121/4/3 124/4/3
f 126/4/3 123/4/3 122/4/3
f 126/4/3 124/4/3 123/4/3
f 127/4/3 124/4/3 126/4/3
f 128/4/3 124/4/3 127/4/3
f 130/4/3 129/4/3 128/4/3
f 130/4/3 128/4/3 127/4/3
f 131/4/3 129/4/3 130/4/3
f 134/4/3 133/4/3 132/4/3
f 135/4/3 133/4/3 134/4/3
f 138/4/3 137/4/3 136/4/3
f 139/4/3 137/4/3 138/4/3
f 142/4/3 141/4/3 140/4/3
f 143/4/3 141/4/3 142/4/3
f 146/4/3 145/4/3 144/4/3
f 147/4/3 145/4/3 146/4/3
f 150/4/3 149/4/3 148/4/3
f 151/4/3 149/4/3 150/4/3
f 154/4/3 153/4/3 152/4/3
f 155/4/3 153/4/3 154/4/3
f 158/4/3 157/4/3 156/4/3
f 159/4/3 157/4/3 158/4/3
f 160/4/4 161/4/4 162/4/4
f 162/4/4 161/4/4 163/4/4
f 164/4/4 165/4/4 166/4/4
f 166/4/4 165/4/4 167/4/4
f 168/4/4 169/4/4 170/4/4
f 170/4/4 169/4/4 171/4/4
f 172/4/4 173/4/4 174/4/4
f 174/4/4 173/4/4 175/4/4
f 176/4/4 177/4/4 178/4/4
f 178/4/4 177/4/4 179/4/4
f 180/4/4 181/4/4 182/4/4
f 182/4/4 181/4/4 183/4/4
f 184/4/4 185/4/4 186/4/4
f 186/4/4 185/4/4 187/4/4
f 188/4/4 189/4/4 191/4/4
f 190/4/4 191/4/4 192/4/4
f 191/4/4 189/4/4 193/4/4
f 192/4/4 191/4/4 193/4/4
f 194/4/4 195/4/4 196/4/4
f 196/4/4 195/4/4 197/4/4
f 198/1/4 199/1/4 203/1/4
f 199/3/4 200/3/4 203/3/4
f 203/3/4 200/3/4 204/3/4
f 201/4/4 202/4/4 205/4/4
f 205/4/4 202/4/4 206/4/4
f 206/4/4 202/4/4 207/4/4
f 204/4/4 205/4/4 208/4/4
f 205/4/4 206/4/4 208/4/4
f 203/2/4 204/2/4 210/2/4
f 208/4/4 209/4/4 210/4/4
f 204/4/4 208/4/4 210/4/4
f 210/4/4 209/4/4 211/4/4
f 198/1/4 203/1/4 212/1/4
f 203/2/4 210/2/4 213/2/4
f 212/1/4 203/1/4 213/1/4
f 213/2/4 210/2/4 214/2/4
f 217/1/5 216/1/5 215/1/5
f 218/1/5 216/1/5 217/1/5
f 224/4/5 220/4/5 219/4/5
f 225/4/5 220/4/5 224/4/5
f 226/4/5 222/4/5 221/4/5
f 227/4/5 222/4/5 226/4/5
f 230/4/5 224/4/5 223/4/5
f 231/4/5 224/4/5 230/4/5
f 232/4/5 229/4/5 228/4/5
f 233/4/5 229/4/5 232/4/5
f 236/4/5 232/4/5 228/4/5
f 237/4/5 232/4/5 236/4/5
f 238/4/5 235/4/5 234/4/5
f 239/4/5 235/4/5 238/4/5
f 240/3/6 241/3/6 242/3/6
f 242/3/6 241/3/6 243/3/6
f 243/3/6 241/3/6 244/3/6
f 244/3/6 241/3/6 245/3/6
f 240/3/6 242/3/6 246/3/6
f 243/3/6 244/3/6 247/3/6
f 247/3/6 244/3/6 248/3/6
f 245/3/6 241/3/6 249/3/6
f 249/3/6 241/3/6 250/3/6
f 240/3/6 246/3/6 253/3/6
f 246/3/6 247/3/6 253/3/6
f 253/3/6 247/3/6 254/3/6
f 251/2/6 252/2/6 255/2/6
f 240/3/6 253/3/6 257/3/6
f 255/2/6 256/2/6 259/2/6
f 251/2/6 255/2/6 259/2/6
f 259/2/6 256/2/6 260/2/6
f 257/3/6 258/3/6 261/3/6
f 240/3/6 257/3/6 261/3/6
f 261/3/6 258/3/6 262/3/6
f 260/2/6 256/2/6 263/2/6
f 263/2/6 256/2/6 264/2/6
f 265/4/6 266/4/6 270/4/6
f 270/4/6 266/4/6 271/4/6
f 267/4/6 268/4/6 272/4/6
f 272/4/6 268/4/6 273/4/6
f 270/4/6 271/4/6 276/4/6
f 273/4/6 274/4/6 276/4/6
f 272/4/6 273/4/6 276/4/6
f 271/4/6 272/4/6 276/4/6
f 269/4/6 270/4/6 276/4/6
f 275/4/6 276/4/6 277/4/6
f 276/4/6 274/4/6 278/4/6
f 277/4/6 276/4/6 278/4/6
f 278/4/6 274/4/6 279/4/6
f 279/4/6 274/4/6 280/4/6
f 278/4/6 279/4/6 282/4/6
f 281/4/6 282/4/6 283/4/6
f 282/4/6 279/4/6 284/4/6
f 283/4/6 282/4/6 284/4/6
f 284/4/6 279/4/6 285/4/6
f 285/4/6 279/4/6 286/4/6
f 287/4/6 288/4/6 293/4/6
f 293/4/6 288/4/6 294/4/6
f 289/4/6 290/4/6 295/4/6
f 295/4/6 290/4/6 296/4/6
f 291/4/6 292/4/6 297/4/6
f 297/4/6 292/4/6 298/4/6
f 287/4/6 293/4/6 299/4/6
f 299/4/6 293/4/6 300/4/6
f 301/4/6 302/4/6 305/4/6
f 305/4/6 302/4/6 306/4/6
f 303/4/6 304/4/6 307/4/6
f 307/4/6 304/4/6 308/4/6
f 309/4/6 310/4/6 311/4/6
f 311/4/6 310/4/6 312/4/6
f 303/4/6 307/4/6 313/4/6
f 313/4/6 307/4/6 314/4/6
