# MagicaVoxel @ Ephtracy

# group
o 

# material
mtllib tile_07.mtl
usemtl palette

# normals
vn -1 0 0
vn 1 0 0
vn 0 0 1
vn 0 0 -1
vn 0 -1 0
vn 0 1 0

# texcoords
vt 0.0136719 0.5
vt 0.822266 0.5

# verts
v -0.4 0 0.4
v -0.4 0 -0.4
v -0.4 0.1 0.4
v -0.4 0.1 -0.4
v 0 0.1 0.4
v 0 0.1 0.3
v 0 0.2 0.4
v 0 0.2 0.3
v 0.1 0.1 0.3
v 0.1 0.1 0.2
v 0.1 0.2 0.3
v 0.1 0.2 0.2
v 0.2 0.1 0.2
v 0.2 0.1 0.1
v 0.2 0.2 0.2
v 0.2 0.2 0.1
v 0.3 0.1 0.1
v 0.3 0.1 0
v 0.3 0.2 0.1
v 0.3 0.2 0
v 0.4 0 0.4
v 0.4 0 -0.4
v 0.4 0.1 0.4
v 0.4 0.1 0
v 0.4 0.1 -0.4
v 0.4 0.2 0.4
v 0.4 0.2 0
v -0.4 0 0.4
v -0.4 0.1 0.4
v 0 0.1 0.4
v 0 0.2 0.4
v 0.4 0 0.4
v 0.4 0.1 0.4
v 0.4 0.2 0.4
v 0 0.1 0.3
v 0 0.2 0.3
v 0.1 0.1 0.3
v 0.1 0.2 0.3
v 0.1 0.1 0.2
v 0.1 0.2 0.2
v 0.2 0.1 0.2
v 0.2 0.2 0.2
v 0.2 0.1 0.1
v 0.2 0.2 0.1
v 0.3 0.1 0.1
v 0.3 0.2 0.1
v 0.3 0.1 0
v 0.3 0.2 0
v 0.4 0.1 0
v 0.4 0.2 0
v -0.4 0 -0.4
v -0.4 0.1 -0.4
v 0.4 0 -0.4
v 0.4 0.1 -0.4
v -0.4 0 0.4
v 0.4 0 0.4
v -0.4 0 -0.4
v 0.4 0 -0.4
v -0.4 0.1 0.4
v 0 0.1 0.4
v 0 0.1 0.3
v 0.1 0.1 0.3
v 0.1 0.1 0.2
v 0.2 0.1 0.2
v 0.2 0.1 0.1
v 0.3 0.1 0.1
v 0.3 0.1 0
v 0.4 0.1 0
v -0.4 0.1 -0.4
v 0.4 0.1 -0.4
v 0 0.2 0.4
v 0.4 0.2 0.4
v 0 0.2 0.3
v 0.1 0.2 0.3
v 0.1 0.2 0.2
v 0.2 0.2 0.2
v 0.2 0.2 0.1
v 0.3 0.2 0.1
v 0.3 0.2 0
v 0.4 0.2 0

# faces
f 3/2/1 2/2/1 1/2/1
f 4/2/1 2/2/1 3/2/1
f 7/1/1 6/1/1 5/1/1
f 8/1/1 6/1/1 7/1/1
f 11/1/1 10/1/1 9/1/1
f 12/1/1 10/1/1 11/1/1
f 15/1/1 14/1/1 13/1/1
f 16/1/1 14/1/1 15/1/1
f 19/1/1 18/1/1 17/1/1
f 20/1/1 18/1/1 19/1/1
f 21/2/2 22/2/2 23/2/2
f 23/2/2 22/2/2 24/2/2
f 24/2/2 22/2/2 25/2/2
f 23/1/2 24/1/2 26/1/2
f 26/1/2 24/1/2 27/1/2
f 30/2/3 29/2/3 28/2/3
f 32/2/3 30/2/3 28/2/3
f 33/1/3 31/1/3 30/1/3
f 33/2/3 30/2/3 32/2/3
f 34/1/3 31/1/3 33/1/3
f 35/1/4 36/1/4 37/1/4
f 37/1/4 36/1/4 38/1/4
f 39/1/4 40/1/4 41/1/4
f 41/1/4 40/1/4 42/1/4
f 43/1/4 44/1/4 45/1/4
f 45/1/4 44/1/4 46/1/4
f 47/1/4 48/1/4 49/1/4
f 49/1/4 48/1/4 50/1/4
f 51/2/4 52/2/4 53/2/4
f 53/2/4 52/2/4 54/2/4
f 57/2/5 56/2/5 55/2/5
f 58/2/5 56/2/5 57/2/5
f 59/2/6 60/2/6 61/2/6
f 61/2/6 62/2/6 63/2/6
f 63/2/6 64/2/6 65/2/6
f 65/2/6 66/2/6 67/2/6
f 59/2/6 61/2/6 69/2/6
f 67/2/6 68/2/6 69/2/6
f 65/2/6 67/2/6 69/2/6
f 63/2/6 65/2/6 69/2/6
f 61/2/6 63/2/6 69/2/6
f 69/2/6 68/2/6 70/2/6
f 71/1/6 72/1/6 73/1/6
f 73/1/6 72/1/6 74/1/6
f 74/1/6 72/1/6 75/1/6
f 75/1/6 72/1/6 76/1/6
f 76/1/6 72/1/6 77/1/6
f 77/1/6 72/1/6 78/1/6
f 78/1/6 72/1/6 79/1/6
f 79/1/6 72/1/6 80/1/6
