# MagicaVoxel @ Ephtracy

# group
o 

# material
mtllib tile_11.mtl
usemtl palette

# normals
vn -1 0 0
vn 1 0 0
vn 0 0 1
vn 0 0 -1
vn 0 -1 0
vn 0 1 0

# texcoords
vt 0.0292969 0.5
vt 0.537109 0.5
vt 0.783203 0.5
vt 0.912109 0.5

# verts
v -0.5 0 0.5
v -0.5 0 -0.5
v -0.5 0.1 0.5
v -0.5 0.1 -0.5
v -0.5 0.2 0.5
v -0.5 0.2 -0.5
v 0.2 0.1 0.5
v 0.2 0.1 -0.5
v 0.2 0.2 0.5
v 0.2 0.2 -0.5
v -0.2 0.1 0.5
v -0.2 0.1 -0.5
v -0.2 0.2 0.5
v -0.2 0.2 -0.5
v 0.5 0 0.5
v 0.5 0 -0.5
v 0.5 0.1 0.5
v 0.5 0.1 -0.5
v 0.5 0.2 0.5
v 0.5 0.2 -0.5
v -0.5 0 0.5
v -0.5 0.1 0.5
v -0.5 0.2 0.5
v -0.3 0.1 0.5
v -0.3 0.2 0.5
v -0.2 0 0.5
v -0.2 0.1 0.5
v -0.2 0.2 0.5
v 0.2 0 0.5
v 0.2 0.1 0.5
v 0.2 0.2 0.5
v 0.3 0.1 0.5
v 0.3 0.2 0.5
v 0.5 0 0.5
v 0.5 0.1 0.5
v 0.5 0.2 0.5
v -0.5 0 -0.5
v -0.5 0.1 -0.5
v -0.5 0.2 -0.5
v -0.3 0.1 -0.5
v -0.3 0.2 -0.5
v -0.2 0 -0.5
v -0.2 0.1 -0.5
v -0.2 0.2 -0.5
v 0.2 0 -0.5
v 0.2 0.1 -0.5
v 0.2 0.2 -0.5
v 0.3 0.1 -0.5
v 0.3 0.2 -0.5
v 0.5 0 -0.5
v 0.5 0.1 -0.5
v 0.5 0.2 -0.5
v -0.5 0 0.5
v -0.2 0 0.5
v 0.2 0 0.5
v 0.5 0 0.5
v -0.5 0 -0.5
v -0.2 0 -0.5
v 0.2 0 -0.5
v 0.5 0 -0.5
v -0.2 0.1 0.5
v 0.2 0.1 0.5
v -0.2 0.1 -0.5
v 0.2 0.1 -0.5
v -0.5 0.2 0.5
v -0.3 0.2 0.5
v -0.2 0.2 0.5
v 0.2 0.2 0.5
v 0.3 0.2 0.5
v 0.5 0.2 0.5
v -0.5 0.2 -0.5
v -0.3 0.2 -0.5
v -0.2 0.2 -0.5
v 0.2 0.2 -0.5
v 0.3 0.2 -0.5
v 0.5 0.2 -0.5

# faces
f 3/1/1 2/1/1 1/1/1
f 4/1/1 2/1/1 3/1/1
f 5/4/1 4/4/1 3/4/1
f 6/4/1 4/4/1 5/4/1
f 9/2/1 8/2/1 7/2/1
f 10/2/1 8/2/1 9/2/1
f 11/2/2 12/2/2 13/2/2
f 13/2/2 12/2/2 14/2/2
f 15/1/2 16/1/2 17/1/2
f 17/1/2 16/1/2 18/1/2
f 17/4/2 18/4/2 19/4/2
f 19/4/2 18/4/2 20/4/2
f 24/1/3 22/1/3 21/1/3
f 24/4/3 23/4/3 22/4/3
f 25/4/3 23/4/3 24/4/3
f 26/1/3 24/1/3 21/1/3
f 27/2/3 25/2/3 24/2/3
f 27/1/3 24/1/3 26/1/3
f 28/2/3 25/2/3 27/2/3
f 29/3/3 27/3/3 26/3/3
f 30/3/3 27/3/3 29/3/3
f 32/1/3 30/1/3 29/1/3
f 32/2/3 31/2/3 30/2/3
f 33/2/3 31/2/3 32/2/3
f 34/1/3 32/1/3 29/1/3
f 35/4/3 33/4/3 32/4/3
f 35/1/3 32/1/3 34/1/3
f 36/4/3 33/4/3 35/4/3
f 37/1/4 38/1/4 40/1/4
f 38/4/4 39/4/4 40/4/4
f 40/4/4 39/4/4 41/4/4
f 37/1/4 40/1/4 42/1/4
f 40/2/4 41/2/4 43/2/4
f 42/1/4 40/1/4 43/1/4
f 43/2/4 41/2/4 44/2/4
f 42/3/4 43/3/4 45/3/4
f 45/3/4 43/3/4 46/3/4
f 45/1/4 46/1/4 48/1/4
f 46/2/4 47/2/4 48/2/4
f 48/2/4 47/2/4 49/2/4
f 45/1/4 48/1/4 50/1/4
f 48/4/4 49/4/4 51/4/4
f 50/1/4 48/1/4 51/1/4
f 51/4/4 49/4/4 52/4/4
f 57/1/5 54/1/5 53/1/5
f 58/3/5 55/3/5 54/3/5
f 58/1/5 54/1/5 57/1/5
f 59/1/5 56/1/5 55/1/5
f 59/3/5 55/3/5 58/3/5
f 60/1/5 56/1/5 59/1/5
f 61/3/6 62/3/6 63/3/6
f 63/3/6 62/3/6 64/3/6
f 65/4/6 66/4/6 71/4/6
f 66/2/6 67/2/6 72/2/6
f 71/4/6 66/4/6 72/4/6
f 72/2/6 67/2/6 73/2/6
f 68/2/6 69/2/6 74/2/6
f 69/4/6 70/4/6 75/4/6
f 74/2/6 69/2/6 75/2/6
f 75/4/6 70/4/6 76/4/6
