# MagicaVoxel @ Ephtracy

# group
o 

# material
mtllib tile_04.mtl
usemtl palette

# normals
vn -1 0 0
vn 1 0 0
vn 0 0 1
vn 0 0 -1
vn 0 -1 0
vn 0 1 0

# texcoords
vt 0.0253906 0.5
vt 0.0292969 0.5
vt 0.912109 0.5

# verts
v -0.5 0 0.5
v -0.5 0 -0.5
v -0.5 0.1 0.5
v -0.5 0.1 -0.5
v -0.5 0.2 0.5
v -0.5 0.2 -0.5
v 0.5 0 0.5
v 0.5 0 -0.5
v 0.5 0.1 0.5
v 0.5 0.1 0.1
v 0.5 0.1 -0.1
v 0.5 0.1 -0.5
v 0.5 0.2 0.5
v 0.5 0.2 0.1
v 0.5 0.2 -0.1
v 0.5 0.2 -0.5
v -0.5 0 0.5
v -0.5 0.1 0.5
v -0.5 0.2 0.5
v -0.1 0.1 0.5
v -0.1 0.2 0.5
v 0.1 0.1 0.5
v 0.1 0.2 0.5
v 0.5 0 0.5
v 0.5 0.1 0.5
v 0.5 0.2 0.5
v -0.5 0 -0.5
v -0.5 0.1 -0.5
v -0.5 0.2 -0.5
v -0.1 0.1 -0.5
v -0.1 0.2 -0.5
v 0.1 0.1 -0.5
v 0.1 0.2 -0.5
v 0.5 0 -0.5
v 0.5 0.1 -0.5
v 0.5 0.2 -0.5
v -0.5 0 0.5
v 0.5 0 0.5
v -0.5 0 -0.5
v 0.5 0 -0.5
v -0.5 0.2 0.5
v -0.1 0.2 0.5
v 0.1 0.2 0.5
v 0.5 0.2 0.5
v 0.1 0.2 0.3
v 0.2 0.2 0.3
v 0.2 0.2 0.1
v 0.5 0.2 0.1
v -0.2 0.2 0
v -0.1 0.2 0
v 0.1 0.2 -0.1
v 0.5 0.2 -0.1
v 0.1 0.2 -0.2
v 0.2 0.2 -0.2
v -0.2 0.2 -0.3
v -0.1 0.2 -0.3
v 0.1 0.2 -0.4
v 0.2 0.2 -0.4
v -0.5 0.2 -0.5
v -0.1 0.2 -0.5
v 0.1 0.2 -0.5
v 0.5 0.2 -0.5

# faces
f 3/2/1 2/2/1 1/2/1
f 4/2/1 2/2/1 3/2/1
f 5/3/1 4/3/1 3/3/1
f 6/3/1 4/3/1 5/3/1
f 7/2/2 8/2/2 9/2/2
f 9/2/2 8/2/2 10/2/2
f 10/2/2 8/2/2 11/2/2
f 11/2/2 8/2/2 12/2/2
f 9/3/2 10/3/2 13/3/2
f 10/1/2 11/1/2 14/1/2
f 13/3/2 10/3/2 14/3/2
f 11/3/2 12/3/2 15/3/2
f 14/1/2 11/1/2 15/1/2
f 15/3/2 12/3/2 16/3/2
f 20/2/3 18/2/3 17/2/3
f 20/3/3 19/3/3 18/3/3
f 21/3/3 19/3/3 20/3/3
f 22/2/3 20/2/3 17/2/3
f 22/1/3 21/1/3 20/1/3
f 23/1/3 21/1/3 22/1/3
f 24/2/3 22/2/3 17/2/3
f 25/3/3 23/3/3 22/3/3
f 25/2/3 22/2/3 24/2/3
f 26/3/3 23/3/3 25/3/3
f 27/2/4 28/2/4 30/2/4
f 28/3/4 29/3/4 30/3/4
f 30/3/4 29/3/4 31/3/4
f 27/2/4 30/2/4 32/2/4
f 30/1/4 31/1/4 32/1/4
f 32/1/4 31/1/4 33/1/4
f 27/2/4 32/2/4 34/2/4
f 32/3/4 33/3/4 35/3/4
f 34/2/4 32/2/4 35/2/4
f 35/3/4 33/3/4 36/3/4
f 39/2/5 38/2/5 37/2/5
f 40/2/5 38/2/5 39/2/5
f 42/1/6 43/1/6 45/1/6
f 43/3/6 44/3/6 45/3/6
f 45/3/6 44/3/6 46/3/6
f 45/1/6 46/1/6 47/1/6
f 46/3/6 44/3/6 47/3/6
f 47/3/6 44/3/6 48/3/6
f 41/3/6 42/3/6 49/3/6
f 42/1/6 45/1/6 50/1/6
f 49/3/6 42/3/6 50/3/6
f 45/1/6 47/1/6 50/1/6
f 47/1/6 48/1/6 50/1/6
f 49/1/6 50/1/6 51/1/6
f 50/1/6 48/1/6 51/1/6
f 51/1/6 48/1/6 52/1/6
f 49/1/6 51/1/6 53/1/6
f 51/3/6 52/3/6 53/3/6
f 53/3/6 52/3/6 54/3/6
f 41/3/6 49/3/6 55/3/6
f 49/1/6 53/1/6 55/1/6
f 53/1/6 54/1/6 55/1/6
f 55/1/6 54/1/6 56/1/6
f 56/1/6 54/1/6 57/1/6
f 54/3/6 52/3/6 58/3/6
f 57/1/6 54/1/6 58/1/6
f 41/3/6 55/3/6 59/3/6
f 55/3/6 56/3/6 59/3/6
f 56/1/6 57/1/6 60/1/6
f 59/3/6 56/3/6 60/3/6
f 57/3/6 58/3/6 61/3/6
f 60/1/6 57/1/6 61/1/6
f 58/3/6 52/3/6 62/3/6
f 61/3/6 58/3/6 62/3/6
