# MagicaVoxel @ Ephtracy

# group
o 

# material
mtllib tile_15.mtl
usemtl palette

# normals
vn -1 0 0
vn 1 0 0
vn 0 0 1
vn 0 0 -1
vn 0 -1 0
vn 0 1 0

# texcoords
vt 0.0292969 0.5
vt 0.537109 0.5
vt 0.783203 0.5
vt 0.912109 0.5

# verts
v -0.5 0 0.5
v -0.5 0 0.2
v -0.5 0 -0.2
v -0.5 0 -0.5
v -0.5 0.1 0.5
v -0.5 0.1 0.3
v -0.5 0.1 0.2
v -0.5 0.1 -0.2
v -0.5 0.1 -0.3
v -0.5 0.1 -0.5
v -0.5 0.2 0.5
v -0.5 0.2 0.3
v -0.5 0.2 0.2
v -0.5 0.2 -0.2
v -0.5 0.2 -0.3
v -0.5 0.2 -0.5
v 0.2 0.1 0.2
v 0.2 0.1 -0.5
v 0.2 0.2 0.2
v 0.2 0.2 -0.5
v -0.2 0.1 -0.2
v -0.2 0.1 -0.5
v -0.2 0.2 -0.2
v -0.2 0.2 -0.5
v 0.5 0 0.5
v 0.5 0 -0.5
v 0.5 0.1 0.5
v 0.5 0.1 -0.5
v 0.5 0.2 0.5
v 0.5 0.2 -0.5
v -0.5 0 0.5
v -0.5 0.1 0.5
v -0.5 0.2 0.5
v 0.5 0 0.5
v 0.5 0.1 0.5
v 0.5 0.2 0.5
v -0.5 0.1 -0.2
v -0.5 0.2 -0.2
v -0.2 0.1 -0.2
v -0.2 0.2 -0.2
v -0.5 0.1 0.2
v -0.5 0.2 0.2
v 0.2 0.1 0.2
v 0.2 0.2 0.2
v -0.5 0 -0.5
v -0.5 0.1 -0.5
v -0.5 0.2 -0.5
v -0.3 0.1 -0.5
v -0.3 0.2 -0.5
v -0.2 0 -0.5
v -0.2 0.1 -0.5
v -0.2 0.2 -0.5
v 0.2 0 -0.5
v 0.2 0.1 -0.5
v 0.2 0.2 -0.5
v 0.3 0.1 -0.5
v 0.3 0.2 -0.5
v 0.5 0 -0.5
v 0.5 0.1 -0.5
v 0.5 0.2 -0.5
v -0.5 0 0.5
v 0.5 0 0.5
v -0.5 0 0.2
v 0.2 0 0.2
v -0.5 0 -0.2
v -0.2 0 -0.2
v -0.5 0 -0.5
v -0.2 0 -0.5
v 0.2 0 -0.5
v 0.5 0 -0.5
v -0.5 0.1 0.2
v 0.2 0.1 0.2
v -0.5 0.1 -0.2
v -0.2 0.1 -0.2
v -0.2 0.1 -0.5
v 0.2 0.1 -0.5
v -0.5 0.2 0.5
v 0.5 0.2 0.5
v -0.5 0.2 0.3
v 0.3 0.2 0.3
v -0.5 0.2 0.2
v 0.2 0.2 0.2
v -0.5 0.2 -0.2
v -0.2 0.2 -0.2
v -0.5 0.2 -0.3
v -0.3 0.2 -0.3
v -0.5 0.2 -0.5
v -0.3 0.2 -0.5
v -0.2 0.2 -0.5
v 0.2 0.2 -0.5
v 0.3 0.2 -0.5
v 0.5 0.2 -0.5

# faces
f 5/1/1 2/1/1 1/1/1
f 6/1/1 2/1/1 5/1/1
f 7/3/1 3/3/1 2/3/1
f 7/1/1 2/1/1 6/1/1
f 8/1/1 4/1/1 3/1/1
f 8/3/1 3/3/1 7/3/1
f 9/1/1 4/1/1 8/1/1
f 10/1/1 4/1/1 9/1/1
f 11/4/1 6/4/1 5/4/1
f 12/2/1 7/2/1 6/2/1
f 12/4/1 6/4/1 11/4/1
f 13/2/1 7/2/1 12/2/1
f 14/2/1 9/2/1 8/2/1
f 15/4/1 10/4/1 9/4/1
f 15/2/1 9/2/1 14/2/1
f 16/4/1 10/4/1 15/4/1
f 19/2/1 18/2/1 17/2/1
f 20/2/1 18/2/1 19/2/1
f 21/2/2 22/2/2 23/2/2
f 23/2/2 22/2/2 24/2/2
f 25/1/2 26/1/2 27/1/2
f 27/1/2 26/1/2 28/1/2
f 27/4/2 28/4/2 29/4/2
f 29/4/2 28/4/2 30/4/2
f 34/1/3 32/1/3 31/1/3
f 35/4/3 33/4/3 32/4/3
f 35/1/3 32/1/3 34/1/3
f 36/4/3 33/4/3 35/4/3
f 39/2/3 38/2/3 37/2/3
f 40/2/3 38/2/3 39/2/3
f 41/2/4 42/2/4 43/2/4
f 43/2/4 42/2/4 44/2/4
f 45/1/4 46/1/4 48/1/4
f 46/4/4 47/4/4 48/4/4
f 48/4/4 47/4/4 49/4/4
f 45/1/4 48/1/4 50/1/4
f 48/2/4 49/2/4 51/2/4
f 50/1/4 48/1/4 51/1/4
f 51/2/4 49/2/4 52/2/4
f 50/3/4 51/3/4 53/3/4
f 53/3/4 51/3/4 54/3/4
f 53/1/4 54/1/4 56/1/4
f 54/2/4 55/2/4 56/2/4
f 56/2/4 55/2/4 57/2/4
f 53/1/4 56/1/4 58/1/4
f 56/4/4 57/4/4 59/4/4
f 58/1/4 56/1/4 59/1/4
f 59/4/4 57/4/4 60/4/4
f 63/1/5 62/1/5 61/1/5
f 64/1/5 62/1/5 63/1/5
f 65/3/5 64/3/5 63/3/5
f 66/3/5 64/3/5 65/3/5
f 67/1/5 66/1/5 65/1/5
f 68/3/5 64/3/5 66/3/5
f 68/1/5 66/1/5 67/1/5
f 69/1/5 62/1/5 64/1/5
f 69/3/5 64/3/5 68/3/5
f 70/1/5 62/1/5 69/1/5
f 71/3/6 72/3/6 73/3/6
f 73/3/6 72/3/6 74/3/6
f 74/3/6 72/3/6 75/3/6
f 75/3/6 72/3/6 76/3/6
f 77/4/6 78/4/6 79/4/6
f 79/4/6 78/4/6 80/4/6
f 79/2/6 80/2/6 81/2/6
f 81/2/6 80/2/6 82/2/6
f 83/2/6 84/2/6 85/2/6
f 85/2/6 84/2/6 86/2/6
f 85/4/6 86/4/6 87/4/6
f 86/2/6 84/2/6 88/2/6
f 87/4/6 86/4/6 88/4/6
f 88/2/6 84/2/6 89/2/6
f 82/2/6 80/2/6 90/2/6
f 80/4/6 78/4/6 91/4/6
f 90/2/6 80/2/6 91/2/6
f 91/4/6 78/4/6 92/4/6
