# MagicaVoxel @ Ephtracy

# group
o 

# material
mtllib tile_07.mtl
usemtl palette

# normals
vn -1 0 0
vn 1 0 0
vn 0 0 1
vn 0 0 -1
vn 0 -1 0
vn 0 1 0

# texcoords
vt 0.0292969 0.5
vt 0.814453 0.5
vt 0.912109 0.5
vt 0.990234 0.5

# verts
v -0.5 0 0.5
v -0.5 0 -0.5
v -0.5 0.1 0.5
v -0.5 0.1 -0.2
v -0.5 0.1 -0.5
v -0.5 0.2 0.5
v -0.5 0.2 0.2
v -0.5 0.2 0.1
v -0.5 0.2 0
v -0.5 0.2 -0.2
v -0.5 0.2 -0.5
v -0.5 0.4 0.1
v -0.5 0.4 0
v -0.5 0.9 0.1
v -0.5 0.9 -0.1
v -0.5 1 0.2
v -0.5 1 0.1
v -0.5 1 -0.1
v -0.5 1 -0.2
v -0.3 0.7 -0.1
v -0.3 0.7 -0.2
v -0.3 0.8 -0.1
v -0.3 0.8 -0.2
v -0.3 0.9 0.2
v -0.3 0.9 0.1
v -0.3 0.9 -0.1
v -0.3 0.9 -0.2
v -0.3 1 0.2
v -0.3 1 0.1
v -0.3 1 -0.1
v -0.3 1 -0.2
v -0.2 0.4 0
v -0.2 0.4 -0.1
v -0.2 0.6 0
v -0.2 0.6 -0.1
v -0.1 0.2 -0.1
v -0.1 0.2 -0.2
v -0.1 0.8 -0.1
v -0.1 0.8 -0.2
v -0.1 0.9 0.2
v -0.1 0.9 0.1
v -0.1 0.9 -0.1
v -0.1 0.9 -0.2
v -0.1 1 0.2
v -0.1 1 0.1
v -0.1 1 -0.1
v -0.1 1 -0.2
v 0.2 0.7 -0.1
v 0.2 0.7 -0.2
v 0.2 0.8 -0.1
v 0.2 0.8 -0.2
v 0.2 0.9 0.2
v 0.2 0.9 0.1
v 0.2 0.9 -0.1
v 0.2 0.9 -0.2
v 0.2 1 0.2
v 0.2 1 0.1
v 0.2 1 -0.1
v 0.2 1 -0.2
v 0.3 0.4 0
v 0.3 0.4 -0.1
v 0.3 0.6 0
v 0.3 0.6 -0.1
v 0.3 0.7 0.2
v 0.3 0.7 0
v 0.3 0.8 0.2
v 0.3 0.8 0
v 0.4 0.2 0.2
v 0.4 0.2 0.1
v 0.4 0.2 -0.1
v 0.4 0.2 -0.2
v 0.4 0.4 0.1
v 0.4 0.4 0
v 0.4 0.7 0.2
v 0.4 0.7 0
v 0.4 0.8 -0.1
v 0.4 0.8 -0.2
v 0.4 0.9 0.2
v 0.4 0.9 0.1
v 0.4 0.9 -0.1
v 0.4 0.9 -0.2
v 0.4 1 0.2
v 0.4 1 0.1
v 0.4 1 -0.1
v 0.4 1 -0.2
v -0.4 0.2 0.2
v -0.4 0.2 0.1
v -0.4 0.2 -0.1
v -0.4 0.2 -0.2
v -0.4 0.4 0.1
v -0.4 0.4 0
v -0.4 0.7 0.2
v -0.4 0.7 0
v -0.4 0.8 -0.1
v -0.4 0.8 -0.2
v -0.4 0.9 0.2
v -0.4 0.9 0.1
v -0.4 0.9 -0.1
v -0.4 0.9 -0.2
v -0.4 1 0.2
v -0.4 1 0.1
v -0.4 1 -0.1
v -0.4 1 -0.2
v -0.3 0.4 0
v -0.3 0.4 -0.1
v -0.3 0.6 0
v -0.3 0.6 -0.1
v -0.3 0.7 0.2
v -0.3 0.7 0
v -0.3 0.8 0.2
v -0.3 0.8 0
v -0.2 0.7 -0.1
v -0.2 0.7 -0.2
v -0.2 0.8 -0.1
v -0.2 0.8 -0.2
v -0.2 0.9 0.2
v -0.2 0.9 0.1
v -0.2 0.9 -0.1
v -0.2 0.9 -0.2
v -0.2 1 0.2
v -0.2 1 0.1
v -0.2 1 -0.1
v -0.2 1 -0.2
v 0.1 0.2 -0.1
v 0.1 0.2 -0.2
v 0.1 0.8 -0.1
v 0.1 0.8 -0.2
v 0.1 0.9 0.2
v 0.1 0.9 0.1
v 0.1 0.9 -0.1
v 0.1 0.9 -0.2
v 0.1 1 0.2
v 0.1 1 0.1
v 0.1 1 -0.1
v 0.1 1 -0.2
v 0.2 0.4 0
v 0.2 0.4 -0.1
v 0.2 0.6 0
v 0.2 0.6 -0.1
v 0.3 0.7 -0.1
v 0.3 0.7 -0.2
v 0.3 0.8 -0.1
v 0.3 0.8 -0.2
v 0.3 0.9 0.2
v 0.3 0.9 0.1
v 0.3 0.9 -0.1
v 0.3 0.9 -0.2
v 0.3 1 0.2
v 0.3 1 0.1
v 0.3 1 -0.1
v 0.3 1 -0.2
v 0.5 0 0.5
v 0.5 0 -0.5
v 0.5 0.1 0.5
v 0.5 0.1 -0.2
v 0.5 0.1 -0.5
v 0.5 0.2 0.5
v 0.5 0.2 0.2
v 0.5 0.2 0.1
v 0.5 0.2 0
v 0.5 0.2 -0.2
v 0.5 0.2 -0.5
v 0.5 0.4 0.1
v 0.5 0.4 0
v 0.5 0.9 0.1
v 0.5 0.9 -0.1
v 0.5 1 0.2
v 0.5 1 0.1
v 0.5 1 -0.1
v 0.5 1 -0.2
v -0.5 0 0.5
v -0.5 0.1 0.5
v -0.5 0.2 0.5
v 0.5 0 0.5
v 0.5 0.1 0.5
v 0.5 0.2 0.5
v -0.5 0.2 0.2
v -0.5 1 0.2
v -0.4 0.2 0.2
v -0.4 0.7 0.2
v -0.4 0.9 0.2
v -0.4 1 0.2
v -0.3 0.7 0.2
v -0.3 0.8 0.2
v -0.3 0.9 0.2
v -0.3 1 0.2
v -0.2 0.9 0.2
v -0.2 1 0.2
v -0.1 0.9 0.2
v -0.1 1 0.2
v 0.1 0.9 0.2
v 0.1 1 0.2
v 0.2 0.9 0.2
v 0.2 1 0.2
v 0.3 0.7 0.2
v 0.3 0.8 0.2
v 0.3 0.9 0.2
v 0.3 1 0.2
v 0.4 0.2 0.2
v 0.4 0.7 0.2
v 0.4 0.9 0.2
v 0.4 1 0.2
v 0.5 0.2 0.2
v 0.5 1 0.2
v -0.5 0.2 0
v -0.5 0.4 0
v -0.4 0.4 0
v -0.4 0.7 0
v -0.3 0.4 0
v -0.3 0.6 0
v -0.3 0.7 0
v -0.3 0.8 0
v -0.2 0.4 0
v -0.2 0.6 0
v 0.2 0.4 0
v 0.2 0.6 0
v 0.3 0.4 0
v 0.3 0.6 0
v 0.3 0.7 0
v 0.3 0.8 0
v 0.4 0.4 0
v 0.4 0.7 0
v 0.5 0.2 0
v 0.5 0.4 0
v -0.5 0.9 -0.1
v -0.5 1 -0.1
v -0.4 0.9 -0.1
v -0.4 1 -0.1
v -0.3 0.9 -0.1
v -0.3 1 -0.1
v -0.2 0.9 -0.1
v -0.2 1 -0.1
v -0.1 0.9 -0.1
v -0.1 1 -0.1
v 0.1 0.9 -0.1
v 0.1 1 -0.1
v 0.2 0.9 -0.1
v 0.2 1 -0.1
v 0.3 0.9 -0.1
v 0.3 1 -0.1
v 0.4 0.9 -0.1
v 0.4 1 -0.1
v 0.5 0.9 -0.1
v 0.5 1 -0.1
v -0.5 0.2 0.1
v -0.5 0.4 0.1
v -0.5 0.9 0.1
v -0.5 1 0.1
v -0.4 0.2 0.1
v -0.4 0.4 0.1
v -0.4 0.9 0.1
v -0.4 1 0.1
v -0.3 0.9 0.1
v -0.3 1 0.1
v -0.2 0.9 0.1
v -0.2 1 0.1
v -0.1 0.9 0.1
v -0.1 1 0.1
v 0.1 0.9 0.1
v 0.1 1 0.1
v 0.2 0.9 0.1
v 0.2 1 0.1
v 0.3 0.9 0.1
v 0.3 1 0.1
v 0.4 0.2 0.1
v 0.4 0.4 0.1
v 0.4 0.9 0.1
v 0.4 1 0.1
v 0.5 0.2 0.1
v 0.5 0.4 0.1
v 0.5 0.9 0.1
v 0.5 1 0.1
v -0.4 0.2 -0.1
v -0.4 0.8 -0.1
v -0.3 0.4 -0.1
v -0.3 0.6 -0.1
v -0.3 0.7 -0.1
v -0.3 0.8 -0.1
v -0.2 0.4 -0.1
v -0.2 0.6 -0.1
v -0.2 0.7 -0.1
v -0.2 0.8 -0.1
v -0.1 0.2 -0.1
v -0.1 0.8 -0.1
v 0.1 0.2 -0.1
v 0.1 0.8 -0.1
v 0.2 0.4 -0.1
v 0.2 0.6 -0.1
v 0.2 0.7 -0.1
v 0.2 0.8 -0.1
v 0.3 0.4 -0.1
v 0.3 0.6 -0.1
v 0.3 0.7 -0.1
v 0.3 0.8 -0.1
v 0.4 0.2 -0.1
v 0.4 0.8 -0.1
v -0.5 0.2 -0.2
v -0.5 1 -0.2
v -0.4 0.2 -0.2
v -0.4 0.8 -0.2
v -0.4 0.9 -0.2
v -0.4 1 -0.2
v -0.3 0.7 -0.2
v -0.3 0.8 -0.2
v -0.3 0.9 -0.2
v -0.3 1 -0.2
v -0.2 0.7 -0.2
v -0.2 0.8 -0.2
v -0.2 0.9 -0.2
v -0.2 1 -0.2
v -0.1 0.2 -0.2
v -0.1 0.8 -0.2
v -0.1 0.9 -0.2
v -0.1 1 -0.2
v 0.1 0.2 -0.2
v 0.1 0.8 -0.2
v 0.1 0.9 -0.2
v 0.1 1 -0.2
v 0.2 0.7 -0.2
v 0.2 0.8 -0.2
v 0.2 0.9 -0.2
v 0.2 1 -0.2
v 0.3 0.7 -0.2
v 0.3 0.8 -0.2
v 0.3 0.9 -0.2
v 0.3 1 -0.2
v 0.4 0.2 -0.2
v 0.4 0.8 -0.2
v 0.4 0.9 -0.2
v 0.4 1 -0.2
v 0.5 0.2 -0.2
v 0.5 1 -0.2
v -0.5 0 -0.5
v -0.5 0.1 -0.5
v -0.5 0.2 -0.5
v 0.5 0 -0.5
v 0.5 0.1 -0.5
v 0.5 0.2 -0.5
v -0.5 0 0.5
v 0.5 0 0.5
v -0.5 0 -0.5
v 0.5 0 -0.5
v -0.5 0.4 0.1
v -0.4 0.4 0.1
v 0.4 0.4 0.1
v 0.5 0.4 0.1
v -0.5 0.4 0
v -0.4 0.4 0
v 0.4 0.4 0
v 0.5 0.4 0
v -0.3 0.6 0
v -0.2 0.6 0
v 0.2 0.6 0
v 0.3 0.6 0
v -0.3 0.6 -0.1
v -0.2 0.6 -0.1
v 0.2 0.6 -0.1
v 0.3 0.6 -0.1
v -0.4 0.7 0.2
v -0.3 0.7 0.2
v 0.3 0.7 0.2
v 0.4 0.7 0.2
v -0.4 0.7 0
v -0.3 0.7 0
v 0.3 0.7 0
v 0.4 0.7 0
v -0.3 0.7 -0.1
v -0.2 0.7 -0.1
v 0.2 0.7 -0.1
v 0.3 0.7 -0.1
v -0.3 0.7 -0.2
v -0.2 0.7 -0.2
v 0.2 0.7 -0.2
v 0.3 0.7 -0.2
v -0.3 0.8 0.2
v 0.3 0.8 0.2
v -0.3 0.8 0
v 0.3 0.8 0
v -0.4 0.8 -0.1
v -0.3 0.8 -0.1
v -0.2 0.8 -0.1
v -0.1 0.8 -0.1
v 0.1 0.8 -0.1
v 0.2 0.8 -0.1
v 0.3 0.8 -0.1
v 0.4 0.8 -0.1
v -0.4 0.8 -0.2
v -0.3 0.8 -0.2
v -0.2 0.8 -0.2
v -0.1 0.8 -0.2
v 0.1 0.8 -0.2
v 0.2 0.8 -0.2
v 0.3 0.8 -0.2
v 0.4 0.8 -0.2
v -0.5 0.2 0.5
v 0.5 0.2 0.5
v -0.5 0.2 0.2
v -0.4 0.2 0.2
v 0.4 0.2 0.2
v 0.5 0.2 0.2
v -0.5 0.2 0.1
v -0.4 0.2 0.1
v 0.4 0.2 0.1
v 0.5 0.2 0.1
v -0.5 0.2 0
v 0.5 0.2 0
v -0.4 0.2 -0.1
v -0.1 0.2 -0.1
v 0.1 0.2 -0.1
v 0.4 0.2 -0.1
v -0.5 0.2 -0.2
v -0.4 0.2 -0.2
v -0.1 0.2 -0.2
v 0.1 0.2 -0.2
v 0.4 0.2 -0.2
v 0.5 0.2 -0.2
v -0.5 0.2 -0.5
v 0.5 0.2 -0.5
v -0.3 0.4 0
v -0.2 0.4 0
v 0.2 0.4 0
v 0.3 0.4 0
v -0.3 0.4 -0.1
v -0.2 0.4 -0.1
v 0.2 0.4 -0.1
v 0.3 0.4 -0.1
v -0.4 0.9 0.2
v -0.3 0.9 0.2
v -0.2 0.9 0.2
v -0.1 0.9 0.2
v 0.1 0.9 0.2
v 0.2 0.9 0.2
v 0.3 0.9 0.2
v 0.4 0.9 0.2
v -0.5 0.9 0.1
v -0.4 0.9 0.1
v -0.3 0.9 0.1
v -0.2 0.9 0.1
v -0.1 0.9 0.1
v 0.1 0.9 0.1
v 0.2 0.9 0.1
v 0.3 0.9 0.1
v 0.4 0.9 0.1
v 0.5 0.9 0.1
v -0.5 0.9 -0.1
v -0.4 0.9 -0.1
v -0.3 0.9 -0.1
v -0.2 0.9 -0.1
v -0.1 0.9 -0.1
v 0.1 0.9 -0.1
v 0.2 0.9 -0.1
v 0.3 0.9 -0.1
v 0.4 0.9 -0.1
v 0.5 0.9 -0.1
v -0.4 0.9 -0.2
v -0.3 0.9 -0.2
v -0.2 0.9 -0.2
v -0.1 0.9 -0.2
v 0.1 0.9 -0.2
v 0.2 0.9 -0.2
v 0.3 0.9 -0.2
v 0.4 0.9 -0.2
v -0.5 1 0.2
v -0.4 1 0.2
v -0.3 1 0.2
v -0.2 1 0.2
v -0.1 1 0.2
v 0.1 1 0.2
v 0.2 1 0.2
v 0.3 1 0.2
v 0.4 1 0.2
v 0.5 1 0.2
v -0.5 1 0.1
v -0.4 1 0.1
v -0.3 1 0.1
v -0.2 1 0.1
v -0.1 1 0.1
v 0.1 1 0.1
v 0.2 1 0.1
v 0.3 1 0.1
v 0.4 1 0.1
v 0.5 1 0.1
v -0.5 1 -0.1
v -0.4 1 -0.1
v -0.3 1 -0.1
v -0.2 1 -0.1
v -0.1 1 -0.1
v 0.1 1 -0.1
v 0.2 1 -0.1
v 0.3 1 -0.1
v 0.4 1 -0.1
v 0.5 1 -0.1
v -0.5 1 -0.2
v -0.4 1 -0.2
v -0.3 1 -0.2
v -0.2 1 -0.2
v -0.1 1 -0.2
v 0.1 1 -0.2
v 0.2 1 -0.2
v 0.3 1 -0.2
v 0.4 1 -0.2
v 0.5 1 -0.2

# faces
f 3/1/1 2/1/1 1/1/1
f 4/1/1 2/1/1 3/1/1
f 5/1/1 2/1/1 4/1/1
f 6/2/1 4/2/1 3/2/1
f 7/2/1 4/2/1 6/2/1
f 8/2/1 4/2/1 7/2/1
f 9/2/1 4/2/1 8/2/1
f 10/3/1 5/3/1 4/3/1
f 10/2/1 4/2/1 9/2/1
f 11/3/1 5/3/1 10/3/1
f 12/4/1 8/4/1 7/4/1
f 13/4/1 10/4/1 9/4/1
f 14/4/1 12/4/1 7/4/1
f 14/4/1 13/4/1 12/4/1
f 15/4/1 10/4/1 13/4/1
f 15/4/1 13/4/1 14/4/1
f 16/4/1 14/4/1 7/4/1
f 17/4/1 14/4/1 16/4/1
f 18/4/1 10/4/1 15/4/1
f 19/4/1 10/4/1 18/4/1
f 22/4/1 21/4/1 20/4/1
f 23/4/1 21/4/1 22/4/1
f 28/4/1 25/4/1 24/4/1
f 29/4/1 25/4/1 28/4/1
f 30/4/1 27/4/1 26/4/1
f 31/4/1 27/4/1 30/4/1
f 34/4/1 33/4/1 32/4/1
f 35/4/1 33/4/1 34/4/1
f 38/4/1 37/4/1 36/4/1
f 39/4/1 37/4/1 38/4/1
f 44/4/1 41/4/1 40/4/1
f 45/4/1 41/4/1 44/4/1
f 46/4/1 43/4/1 42/4/1
f 47/4/1 43/4/1 46/4/1
f 50/4/1 49/4/1 48/4/1
f 51/4/1 49/4/1 50/4/1
f 56/4/1 53/4/1 52/4/1
f 57/4/1 53/4/1 56/4/1
f 58/4/1 55/4/1 54/4/1
f 59/4/1 55/4/1 58/4/1
f 62/4/1 61/4/1 60/4/1
f 63/4/1 61/4/1 62/4/1
f 66/4/1 65/4/1 64/4/1
f 67/4/1 65/4/1 66/4/1
f 72/4/1 69/4/1 68/4/1
f 74/4/1 72/4/1 68/4/1
f 74/4/1 73/4/1 72/4/1
f 75/4/1 73/4/1 74/4/1
f 76/4/1 71/4/1 70/4/1
f 77/4/1 71/4/1 76/4/1
f 82/4/1 79/4/1 78/4/1
f 83/4/1 79/4/1 82/4/1
f 84/4/1 81/4/1 80/4/1
f 85/4/1 81/4/1 84/4/1
f 86/4/2 87/4/2 90/4/2
f 86/4/2 90/4/2 92/4/2
f 90/4/2 91/4/2 92/4/2
f 92/4/2 91/4/2 93/4/2
f 88/4/2 89/4/2 94/4/2
f 94/4/2 89/4/2 95/4/2
f 96/4/2 97/4/2 100/4/2
f 100/4/2 97/4/2 101/4/2
f 98/4/2 99/4/2 102/4/2
f 102/4/2 99/4/2 103/4/2
f 104/4/2 105/4/2 106/4/2
f 106/4/2 105/4/2 107/4/2
f 108/4/2 109/4/2 110/4/2
f 110/4/2 109/4/2 111/4/2
f 112/4/2 113/4/2 114/4/2
f 114/4/2 113/4/2 115/4/2
f 116/4/2 117/4/2 120/4/2
f 120/4/2 117/4/2 121/4/2
f 118/4/2 119/4/2 122/4/2
f 122/4/2 119/4/2 123/4/2
f 124/4/2 125/4/2 126/4/2
f 126/4/2 125/4/2 127/4/2
f 128/4/2 129/4/2 132/4/2
f 132/4/2 129/4/2 133/4/2
f 130/4/2 131/4/2 134/4/2
f 134/4/2 131/4/2 135/4/2
f 136/4/2 137/4/2 138/4/2
f 138/4/2 137/4/2 139/4/2
f 140/4/2 141/4/2 142/4/2
f 142/4/2 141/4/2 143/4/2
f 144/4/2 145/4/2 148/4/2
f 148/4/2 145/4/2 149/4/2
f 146/4/2 147/4/2 150/4/2
f 150/4/2 147/4/2 151/4/2
f 152/1/2 153/1/2 154/1/2
f 154/1/2 153/1/2 155/1/2
f 155/1/2 153/1/2 156/1/2
f 154/2/2 155/2/2 157/2/2
f 157/2/2 155/2/2 158/2/2
f 158/2/2 155/2/2 159/2/2
f 159/2/2 155/2/2 160/2/2
f 155/3/2 156/3/2 161/3/2
f 160/2/2 155/2/2 161/2/2
f 161/3/2 156/3/2 162/3/2
f 158/4/2 159/4/2 163/4/2
f 160/4/2 161/4/2 164/4/2
f 158/4/2 163/4/2 165/4/2
f 163/4/2 164/4/2 165/4/2
f 164/4/2 161/4/2 166/4/2
f 165/4/2 164/4/2 166/4/2
f 158/4/2 165/4/2 167/4/2
f 167/4/2 165/4/2 168/4/2
f 166/4/2 161/4/2 169/4/2
f 169/4/2 161/4/2 170/4/2
f 174/1/3 172/1/3 171/1/3
f 175/2/3 173/2/3 172/2/3
f 175/1/3 172/1/3 174/1/3
f 176/2/3 173/2/3 175/2/3
f 179/4/3 178/4/3 177/4/3
f 180/4/3 178/4/3 179/4/3
f 181/4/3 178/4/3 180/4/3
f 182/4/3 178/4/3 181/4/3
f 183/4/3 181/4/3 180/4/3
f 184/4/3 181/4/3 183/4/3
f 185/4/3 181/4/3 184/4/3
f 187/4/3 186/4/3 185/4/3
f 187/4/3 185/4/3 184/4/3
f 188/4/3 186/4/3 187/4/3
f 189/4/3 187/4/3 184/4/3
f 191/4/3 189/4/3 184/4/3
f 191/4/3 190/4/3 189/4/3
f 192/4/3 190/4/3 191/4/3
f 193/4/3 191/4/3 184/4/3
f 196/4/3 193/4/3 184/4/3
f 196/4/3 194/4/3 193/4/3
f 197/4/3 194/4/3 196/4/3
f 198/4/3 194/4/3 197/4/3
f 200/4/3 196/4/3 195/4/3
f 200/4/3 197/4/3 196/4/3
f 201/4/3 197/4/3 200/4/3
f 203/4/3 200/4/3 199/4/3
f 203/4/3 202/4/3 201/4/3
f 203/4/3 201/4/3 200/4/3
f 204/4/3 202/4/3 203/4/3
f 207/4/3 206/4/3 205/4/3
f 209/4/3 207/4/3 205/4/3
f 209/4/3 208/4/3 207/4/3
f 210/4/3 208/4/3 209/4/3
f 211/4/3 208/4/3 210/4/3
f 213/4/3 209/4/3 205/4/3
f 214/4/3 212/4/3 211/4/3
f 214/4/3 211/4/3 210/4/3
f 215/4/3 213/4/3 205/4/3
f 215/4/3 214/4/3 213/4/3
f 216/4/3 212/4/3 214/4/3
f 216/4/3 214/4/3 215/4/3
f 217/4/3 215/4/3 205/4/3
f 218/4/3 212/4/3 216/4/3
f 219/4/3 212/4/3 218/4/3
f 220/4/3 212/4/3 219/4/3
f 221/4/3 217/4/3 205/4/3
f 221/4/3 218/4/3 217/4/3
f 221/4/3 219/4/3 218/4/3
f 222/4/3 219/4/3 221/4/3
f 223/4/3 221/4/3 205/4/3
f 224/4/3 221/4/3 223/4/3
f 227/4/3 226/4/3 225/4/3
f 228/4/3 226/4/3 227/4/3
f 231/4/3 230/4/3 229/4/3
f 232/4/3 230/4/3 231/4/3
f 235/4/3 234/4/3 233/4/3
f 236/4/3 234/4/3 235/4/3
f 239/4/3 238/4/3 237/4/3
f 240/4/3 238/4/3 239/4/3
f 243/4/3 242/4/3 241/4/3
f 244/4/3 242/4/3 243/4/3
f 245/4/4 246/4/4 249/4/4
f 249/4/4 246/4/4 250/4/4
f 247/4/4 248/4/4 251/4/4
f 251/4/4 248/4/4 252/4/4
f 253/4/4 254/4/4 255/4/4
f 255/4/4 254/4/4 256/4/4
f 257/4/4 258/4/4 259/4/4
f 259/4/4 258/4/4 260/4/4
f 261/4/4 262/4/4 263/4/4
f 263/4/4 262/4/4 264/4/4
f 265/4/4 266/4/4 269/4/4
f 269/4/4 266/4/4 270/4/4
f 267/4/4 268/4/4 271/4/4
f 271/4/4 268/4/4 272/4/4
f 273/4/4 274/4/4 275/4/4
f 275/4/4 274/4/4 276/4/4
f 276/4/4 274/4/4 277/4/4
f 277/4/4 274/4/4 278/4/4
f 273/4/4 275/4/4 279/4/4
f 276/4/4 277/4/4 280/4/4
f 280/4/4 277/4/4 281/4/4
f 273/4/4 279/4/4 283/4/4
f 281/4/4 282/4/4 283/4/4
f 280/4/4 281/4/4 283/4/4
f 279/4/4 280/4/4 283/4/4
f 283/4/4 282/4/4 284/4/4
f 285/4/4 286/4/4 287/4/4
f 287/4/4 286/4/4 288/4/4
f 288/4/4 286/4/4 289/4/4
f 289/4/4 286/4/4 290/4/4
f 285/4/4 287/4/4 291/4/4
f 288/4/4 289/4/4 292/4/4
f 292/4/4 289/4/4 293/4/4
f 285/4/4 291/4/4 295/4/4
f 293/4/4 294/4/4 295/4/4
f 292/4/4 293/4/4 295/4/4
f 291/4/4 292/4/4 295/4/4
f 295/4/4 294/4/4 296/4/4
f 297/4/4 298/4/4 299/4/4
f 299/4/4 298/4/4 300/4/4
f 300/4/4 298/4/4 301/4/4
f 301/4/4 298/4/4 302/4/4
f 300/4/4 301/4/4 304/4/4
f 304/4/4 301/4/4 305/4/4
f 303/4/4 304/4/4 307/4/4
f 305/4/4 306/4/4 307/4/4
f 304/4/4 305/4/4 307/4/4
f 307/4/4 306/4/4 308/4/4
f 308/4/4 306/4/4 309/4/4
f 309/4/4 306/4/4 310/4/4
f 308/4/4 309/4/4 312/4/4
f 312/4/4 309/4/4 313/4/4
f 311/4/4 312/4/4 315/4/4
f 313/4/4 314/4/4 315/4/4
f 312/4/4 313/4/4 315/4/4
f 315/4/4 314/4/4 316/4/4
f 316/4/4 314/4/4 317/4/4
f 317/4/4 314/4/4 318/4/4
f 316/4/4 317/4/4 320/4/4
f 320/4/4 317/4/4 321/4/4
f 319/4/4 320/4/4 323/4/4
f 321/4/4 322/4/4 323/4/4
f 320/4/4 321/4/4 323/4/4
f 323/4/4 322/4/4 324/4/4
f 324/4/4 322/4/4 325/4/4
f 325/4/4 322/4/4 326/4/4
f 324/4/4 325/4/4 328/4/4
f 328/4/4 325/4/4 329/4/4
f 327/4/4 328/4/4 331/4/4
f 329/4/4 330/4/4 331/4/4
f 328/4/4 329/4/4 331/4/4
f 331/4/4 330/4/4 332/4/4
f 333/1/4 334/1/4 336/1/4
f 334/3/4 335/3/4 337/3/4
f 336/1/4 334/1/4 337/1/4
f 337/3/4 335/3/4 338/3/4
f 341/1/5 340/1/5 339/1/5
f 342/1/5 340/1/5 341/1/5
f 347/4/5 344/4/5 343/4/5
f 348/4/5 344/4/5 347/4/5
f 349/4/5 346/4/5 345/4/5
f 350/4/5 346/4/5 349/4/5
f 355/4/5 352/4/5 351/4/5
f 356/4/5 352/4/5 355/4/5
f 357/4/5 354/4/5 353/4/5
f 358/4/5 354/4/5 357/4/5
f 363/4/5 360/4/5 359/4/5
f 364/4/5 360/4/5 363/4/5
f 365/4/5 362/4/5 361/4/5
f 366/4/5 362/4/5 365/4/5
f 371/4/5 368/4/5 367/4/5
f 372/4/5 368/4/5 371/4/5
f 373/4/5 370/4/5 369/4/5
f 374/4/5 370/4/5 373/4/5
f 377/4/5 376/4/5 375/4/5
f 378/4/5 376/4/5 377/4/5
f 387/4/5 380/4/5 379/4/5
f 388/4/5 380/4/5 387/4/5
f 389/4/5 382/4/5 381/4/5
f 390/4/5 382/4/5 389/4/5
f 391/4/5 384/4/5 383/4/5
f 392/4/5 384/4/5 391/4/5
f 393/4/5 386/4/5 385/4/5
f 394/4/5 386/4/5 393/4/5
f 395/2/6 396/2/6 397/2/6
f 397/2/6 396/2/6 398/2/6
f 398/2/6 396/2/6 399/2/6
f 399/2/6 396/2/6 400/2/6
f 398/2/6 399/2/6 402/2/6
f 402/2/6 399/2/6 403/2/6
f 401/2/6 402/2/6 405/2/6
f 403/2/6 404/2/6 405/2/6
f 402/2/6 403/2/6 405/2/6
f 405/2/6 404/2/6 406/2/6
f 407/3/6 408/3/6 412/3/6
f 412/3/6 408/3/6 413/3/6
f 409/3/6 410/3/6 414/3/6
f 414/3/6 410/3/6 415/3/6
f 412/3/6 413/3/6 417/3/6
f 415/3/6 416/3/6 417/3/6
f 414/3/6 415/3/6 417/3/6
f 413/3/6 414/3/6 417/3/6
f 411/3/6 412/3/6 417/3/6
f 417/3/6 416/3/6 418/3/6
f 419/4/6 420/4/6 423/4/6
f 423/4/6 420/4/6 424/4/6
f 421/4/6 422/4/6 425/4/6
f 425/4/6 422/4/6 426/4/6
f 427/4/6 428/4/6 436/4/6
f 436/4/6 428/4/6 437/4/6
f 429/4/6 430/4/6 438/4/6
f 438/4/6 430/4/6 439/4/6
f 431/4/6 432/4/6 440/4/6
f 440/4/6 432/4/6 441/4/6
f 433/4/6 434/4/6 442/4/6
f 442/4/6 434/4/6 443/4/6
f 440/4/6 441/4/6 445/4/6
f 443/4/6 444/4/6 445/4/6
f 442/4/6 443/4/6 445/4/6
f 441/4/6 442/4/6 445/4/6
f 436/4/6 437/4/6 445/4/6
f 439/4/6 440/4/6 445/4/6
f 438/4/6 439/4/6 445/4/6
f 437/4/6 438/4/6 445/4/6
f 435/4/6 436/4/6 445/4/6
f 445/4/6 444/4/6 446/4/6
f 446/4/6 444/4/6 447/4/6
f 447/4/6 444/4/6 448/4/6
f 448/4/6 444/4/6 449/4/6
f 449/4/6 444/4/6 450/4/6
f 450/4/6 444/4/6 451/4/6
f 451/4/6 444/4/6 452/4/6
f 452/4/6 444/4/6 453/4/6
f 453/4/6 444/4/6 454/4/6
f 446/4/6 447/4/6 455/4/6
f 455/4/6 447/4/6 456/4/6
f 448/4/6 449/4/6 457/4/6
f 457/4/6 449/4/6 458/4/6
f 450/4/6 451/4/6 459/4/6
f 459/4/6 451/4/6 460/4/6
f 452/4/6 453/4/6 461/4/6
f 461/4/6 453/4/6 462/4/6
f 463/4/6 464/4/6 473/4/6
f 473/4/6 464/4/6 474/4/6
f 465/4/6 466/4/6 475/4/6
f 475/4/6 466/4/6 476/4/6
f 467/4/6 468/4/6 477/4/6
f 477/4/6 468/4/6 478/4/6
f 469/4/6 470/4/6 479/4/6
f 479/4/6 470/4/6 480/4/6
f 471/4/6 472/4/6 481/4/6
f 481/4/6 472/4/6 482/4/6
f 483/4/6 484/4/6 493/4/6
f 493/4/6 484/4/6 494/4/6
f 485/4/6 486/4/6 495/4/6
f 495/4/6 486/4/6 496/4/6
f 487/4/6 488/4/6 497/4/6
f 497/4/6 488/4/6 498/4/6
f 489/4/6 490/4/6 499/4/6
f 499/4/6 490/4/6 500/4/6
f 491/4/6 492/4/6 501/4/6
f 501/4/6 492/4/6 502/4/6
