# MagicaVoxel @ Ephtracy

# group
o 

# material
mtllib tile_14.mtl
usemtl palette

# normals
vn -1 0 0
vn 1 0 0
vn 0 0 1
vn 0 0 -1
vn 0 -1 0
vn 0 1 0

# texcoords
vt 0.0292969 0.5
vt 0.908203 0.5
vt 0.912109 0.5

# verts
v -0.5 0 0.5
v -0.5 0 -0.5
v -0.5 0.1 0.5
v -0.5 0.1 -0.5
v -0.5 0.2 0.5
v -0.5 0.2 -0.5
v -0.3 0.8 0.1
v -0.3 0.8 -0.1
v -0.3 0.9 0
v -0.3 0.9 -0.1
v -0.3 1 0.1
v -0.3 1 0
v -0.2 0.5 0.1
v -0.2 0.5 -0.1
v -0.2 0.7 0.2
v -0.2 0.7 0.1
v -0.2 0.7 -0.1
v -0.2 0.7 -0.2
v -0.2 0.8 0.1
v -0.2 0.8 -0.1
v -0.2 0.9 0
v -0.2 0.9 -0.1
v -0.2 0.9 -0.2
v -0.2 1 0.2
v -0.2 1 0.1
v -0.2 1 0
v -0.2 1 -0.1
v -0.1 0.2 0.1
v -0.1 0.2 0
v -0.1 0.3 0
v -0.1 0.3 -0.1
v -0.1 0.5 0.1
v -0.1 0.5 -0.1
v -0.1 0.6 0.2
v -0.1 0.6 0.1
v -0.1 0.6 -0.1
v -0.1 0.6 -0.2
v -0.1 0.7 0.2
v -0.1 0.7 0.1
v -0.1 0.7 -0.1
v -0.1 0.7 -0.2
v -0.1 0.9 -0.1
v -0.1 0.9 -0.2
v -0.1 1 -0.1
v -0.1 1 -0.2
v 0 0.5 0.2
v 0 0.5 0.1
v 0 0.5 -0.1
v 0 0.5 -0.2
v 0 0.6 0.2
v 0 0.6 0.1
v 0 0.6 -0.1
v 0 0.6 -0.2
v 0 0.2 0.1
v 0 0.2 0
v 0 0.3 0
v 0 0.3 -0.1
v 0 0.4 0.1
v 0 0.4 0
v 0 0.5 0
v 0 0.5 -0.1
v 0 0.9 0.2
v 0 0.9 0.1
v 0 1 0.2
v 0 1 0.1
v 0.1 0.4 0.1
v 0.1 0.4 0
v 0.1 0.5 0.2
v 0.1 0.5 0.1
v 0.1 0.5 0
v 0.1 0.5 -0.1
v 0.1 0.5 -0.2
v 0.1 0.6 0.2
v 0.1 0.6 0.1
v 0.1 0.6 -0.1
v 0.1 0.6 -0.2
v 0.1 0.7 0.2
v 0.1 0.7 0.1
v 0.1 0.8 -0.1
v 0.1 0.8 -0.2
v 0.1 0.9 0.2
v 0.1 0.9 0.1
v 0.1 0.9 -0.1
v 0.1 1 0.1
v 0.1 1 -0.2
v 0.2 0.5 0.1
v 0.2 0.5 -0.1
v 0.2 0.6 0.2
v 0.2 0.6 0.1
v 0.2 0.6 -0.1
v 0.2 0.6 -0.2
v 0.2 0.7 0.2
v 0.2 0.7 0.1
v 0.2 0.8 -0.1
v 0.2 0.8 -0.2
v 0.2 0.9 0.1
v 0.2 0.9 -0.1
v 0.5 0 0.5
v 0.5 0 -0.5
v 0.5 0.1 0.5
v 0.5 0.1 -0.5
v 0.5 0.2 0.5
v 0.5 0.2 -0.5
v -0.5 0 0.5
v -0.5 0.1 0.5
v -0.5 0.2 0.5
v 0.5 0 0.5
v 0.5 0.1 0.5
v 0.5 0.2 0.5
v -0.2 0.7 0.2
v -0.2 1 0.2
v -0.1 0.6 0.2
v -0.1 0.7 0.2
v 0 0.5 0.2
v 0 0.6 0.2
v 0 0.9 0.2
v 0 1 0.2
v 0.1 0.5 0.2
v 0.1 0.6 0.2
v 0.1 0.7 0.2
v 0.1 0.9 0.2
v 0.2 0.6 0.2
v 0.2 0.7 0.2
v -0.3 0.8 0.1
v -0.3 1 0.1
v -0.2 0.5 0.1
v -0.2 0.7 0.1
v -0.2 0.8 0.1
v -0.2 1 0.1
v -0.1 0.2 0.1
v -0.1 0.5 0.1
v -0.1 0.6 0.1
v -0.1 0.7 0.1
v 0 0.2 0.1
v 0 0.4 0.1
v 0 0.5 0.1
v 0 0.6 0.1
v 0 0.9 0.1
v 0 1 0.1
v 0.1 0.4 0.1
v 0.1 0.5 0.1
v 0.1 0.6 0.1
v 0.1 0.7 0.1
v 0.1 0.9 0.1
v 0.1 1 0.1
v 0.2 0.5 0.1
v 0.2 0.6 0.1
v 0.2 0.7 0.1
v 0.2 0.9 0.1
v -0.3 0.9 0
v -0.3 1 0
v -0.2 0.9 0
v -0.2 1 0
v -0.1 0.2 0
v -0.1 0.3 0
v 0 0.2 0
v 0 0.3 0
v 0 0.4 0
v 0 0.5 0
v 0.1 0.4 0
v 0.1 0.5 0
v -0.3 0.8 -0.1
v -0.3 0.9 -0.1
v -0.2 0.5 -0.1
v -0.2 0.7 -0.1
v -0.2 0.8 -0.1
v -0.2 0.9 -0.1
v -0.2 1 -0.1
v -0.1 0.3 -0.1
v -0.1 0.5 -0.1
v -0.1 0.6 -0.1
v -0.1 0.7 -0.1
v -0.1 0.9 -0.1
v -0.1 1 -0.1
v 0 0.3 -0.1
v 0 0.5 -0.1
v 0 0.6 -0.1
v 0.1 0.5 -0.1
v 0.1 0.6 -0.1
v 0.1 0.8 -0.1
v 0.1 0.9 -0.1
v 0.2 0.5 -0.1
v 0.2 0.6 -0.1
v 0.2 0.8 -0.1
v 0.2 0.9 -0.1
v -0.2 0.7 -0.2
v -0.2 0.9 -0.2
v -0.1 0.6 -0.2
v -0.1 0.7 -0.2
v -0.1 0.9 -0.2
v -0.1 1 -0.2
v 0 0.5 -0.2
v 0 0.6 -0.2
v 0.1 0.5 -0.2
v 0.1 0.6 -0.2
v 0.1 0.8 -0.2
v 0.1 1 -0.2
v 0.2 0.6 -0.2
v 0.2 0.8 -0.2
v -0.5 0 -0.5
v -0.5 0.1 -0.5
v -0.5 0.2 -0.5
v 0.5 0 -0.5
v 0.5 0.1 -0.5
v 0.5 0.2 -0.5
v -0.5 0 0.5
v 0.5 0 0.5
v -0.5 0 -0.5
v 0.5 0 -0.5
v -0.1 0.3 0
v 0 0.3 0
v -0.1 0.3 -0.1
v 0 0.3 -0.1
v 0 0.4 0.1
v 0.1 0.4 0.1
v 0 0.4 0
v 0.1 0.4 0
v 0 0.5 0.2
v 0.1 0.5 0.2
v -0.2 0.5 0.1
v -0.1 0.5 0.1
v 0 0.5 0.1
v 0.1 0.5 0.1
v 0.2 0.5 0.1
v 0 0.5 0
v 0.1 0.5 0
v -0.2 0.5 -0.1
v -0.1 0.5 -0.1
v 0 0.5 -0.1
v 0.1 0.5 -0.1
v 0.2 0.5 -0.1
v 0 0.5 -0.2
v 0.1 0.5 -0.2
v -0.1 0.6 0.2
v 0 0.6 0.2
v 0.1 0.6 0.2
v 0.2 0.6 0.2
v -0.1 0.6 0.1
v 0 0.6 0.1
v 0.1 0.6 0.1
v 0.2 0.6 0.1
v -0.1 0.6 -0.1
v 0 0.6 -0.1
v 0.1 0.6 -0.1
v 0.2 0.6 -0.1
v -0.1 0.6 -0.2
v 0 0.6 -0.2
v 0.1 0.6 -0.2
v 0.2 0.6 -0.2
v -0.2 0.7 0.2
v -0.1 0.7 0.2
v -0.2 0.7 0.1
v -0.1 0.7 0.1
v -0.2 0.7 -0.1
v -0.1 0.7 -0.1
v -0.2 0.7 -0.2
v -0.1 0.7 -0.2
v -0.3 0.8 0.1
v -0.2 0.8 0.1
v -0.3 0.8 -0.1
v -0.2 0.8 -0.1
v -0.5 0.2 0.5
v 0.5 0.2 0.5
v -0.1 0.2 0.1
v 0 0.2 0.1
v -0.1 0.2 0
v 0 0.2 0
v -0.5 0.2 -0.5
v 0.5 0.2 -0.5
v 0.1 0.7 0.2
v 0.2 0.7 0.2
v 0.1 0.7 0.1
v 0.2 0.7 0.1
v 0.1 0.8 -0.1
v 0.2 0.8 -0.1
v 0.1 0.8 -0.2
v 0.2 0.8 -0.2
v 0 0.9 0.2
v 0.1 0.9 0.2
v 0 0.9 0.1
v 0.1 0.9 0.1
v 0.2 0.9 0.1
v -0.3 0.9 0
v -0.2 0.9 0
v -0.3 0.9 -0.1
v -0.2 0.9 -0.1
v -0.1 0.9 -0.1
v 0.1 0.9 -0.1
v 0.2 0.9 -0.1
v -0.2 0.9 -0.2
v -0.1 0.9 -0.2
v -0.2 1 0.2
v 0 1 0.2
v -0.3 1 0.1
v -0.2 1 0.1
v 0 1 0.1
v 0.1 1 0.1
v -0.3 1 0
v -0.2 1 0
v -0.2 1 -0.1
v -0.1 1 -0.1
v -0.1 1 -0.2
v 0.1 1 -0.2

# faces
f 3/1/1 2/1/1 1/1/1
f 4/1/1 2/1/1 3/1/1
f 5/3/1 4/3/1 3/3/1
f 6/3/1 4/3/1 5/3/1
f 9/2/1 8/2/1 7/2/1
f 10/2/1 8/2/1 9/2/1
f 11/2/1 9/2/1 7/2/1
f 12/2/1 9/2/1 11/2/1
f 16/2/1 14/2/1 13/2/1
f 17/2/1 14/2/1 16/2/1
f 19/2/1 16/2/1 15/2/1
f 19/2/1 18/2/1 17/2/1
f 19/2/1 17/2/1 16/2/1
f 20/2/1 18/2/1 19/2/1
f 22/2/1 18/2/1 20/2/1
f 23/2/1 18/2/1 22/2/1
f 24/2/1 19/2/1 15/2/1
f 25/2/1 19/2/1 24/2/1
f 26/2/1 22/2/1 21/2/1
f 27/2/1 22/2/1 26/2/1
f 30/1/1 29/1/1 28/1/1
f 32/1/1 30/1/1 28/1/1
f 32/1/1 31/1/1 30/1/1
f 33/1/1 31/1/1 32/1/1
f 38/2/1 35/2/1 34/2/1
f 39/2/1 35/2/1 38/2/1
f 40/2/1 37/2/1 36/2/1
f 41/2/1 37/2/1 40/2/1
f 44/2/1 43/2/1 42/2/1
f 45/2/1 43/2/1 44/2/1
f 50/2/1 47/2/1 46/2/1
f 51/2/1 47/2/1 50/2/1
f 52/2/1 49/2/1 48/2/1
f 53/2/1 49/2/1 52/2/1
f 54/1/2 55/1/2 56/1/2
f 54/1/2 56/1/2 58/1/2
f 56/1/2 57/1/2 58/1/2
f 58/1/2 57/1/2 59/1/2
f 59/1/2 57/1/2 60/1/2
f 60/1/2 57/1/2 61/1/2
f 62/2/2 63/2/2 64/2/2
f 64/2/2 63/2/2 65/2/2
f 66/1/2 67/1/2 69/1/2
f 69/1/2 67/1/2 70/1/2
f 68/2/2 69/2/2 73/2/2
f 73/2/2 69/2/2 74/2/2
f 71/2/2 72/2/2 75/2/2
f 75/2/2 72/2/2 76/2/2
f 77/2/2 78/2/2 81/2/2
f 81/2/2 78/2/2 82/2/2
f 79/2/2 80/2/2 83/2/2
f 82/2/2 83/2/2 84/2/2
f 83/2/2 80/2/2 85/2/2
f 84/2/2 83/2/2 85/2/2
f 86/2/2 87/2/2 89/2/2
f 89/2/2 87/2/2 90/2/2
f 88/2/2 89/2/2 92/2/2
f 90/2/2 91/2/2 92/2/2
f 89/2/2 90/2/2 92/2/2
f 92/2/2 91/2/2 93/2/2
f 93/2/2 91/2/2 94/2/2
f 94/2/2 91/2/2 95/2/2
f 93/2/2 94/2/2 96/2/2
f 96/2/2 94/2/2 97/2/2
f 98/1/2 99/1/2 100/1/2
f 100/1/2 99/1/2 101/1/2
f 100/3/2 101/3/2 102/3/2
f 102/3/2 101/3/2 103/3/2
f 107/1/3 105/1/3 104/1/3
f 108/3/3 106/3/3 105/3/3
f 108/1/3 105/1/3 107/1/3
f 109/3/3 106/3/3 108/3/3
f 113/2/3 111/2/3 110/2/3
f 115/2/3 113/2/3 112/2/3
f 116/2/3 111/2/3 113/2/3
f 116/2/3 113/2/3 115/2/3
f 117/2/3 111/2/3 116/2/3
f 118/2/3 115/2/3 114/2/3
f 118/2/3 116/2/3 115/2/3
f 119/2/3 116/2/3 118/2/3
f 120/2/3 116/2/3 119/2/3
f 121/2/3 116/2/3 120/2/3
f 122/2/3 120/2/3 119/2/3
f 123/2/3 120/2/3 122/2/3
f 128/2/3 125/2/3 124/2/3
f 129/2/3 125/2/3 128/2/3
f 131/2/3 127/2/3 126/2/3
f 132/2/3 127/2/3 131/2/3
f 133/2/3 127/2/3 132/2/3
f 134/1/3 131/1/3 130/1/3
f 135/1/3 131/1/3 134/1/3
f 136/2/3 132/2/3 131/2/3
f 136/1/3 131/1/3 135/1/3
f 137/2/3 132/2/3 136/2/3
f 140/1/3 136/1/3 135/1/3
f 141/1/3 136/1/3 140/1/3
f 144/2/3 139/2/3 138/2/3
f 145/2/3 139/2/3 144/2/3
f 146/2/3 142/2/3 141/2/3
f 147/2/3 142/2/3 146/2/3
f 148/2/3 144/2/3 143/2/3
f 149/2/3 144/2/3 148/2/3
f 150/2/4 151/2/4 152/2/4
f 152/2/4 151/2/4 153/2/4
f 154/1/4 155/1/4 156/1/4
f 156/1/4 155/1/4 157/1/4
f 158/1/4 159/1/4 160/1/4
f 160/1/4 159/1/4 161/1/4
f 162/2/4 163/2/4 166/2/4
f 166/2/4 163/2/4 167/2/4
f 164/2/4 165/2/4 170/2/4
f 170/2/4 165/2/4 171/2/4
f 171/2/4 165/2/4 172/2/4
f 167/2/4 168/2/4 173/2/4
f 173/2/4 168/2/4 174/2/4
f 169/1/4 170/1/4 175/1/4
f 170/1/4 171/1/4 175/1/4
f 175/1/4 171/1/4 176/1/4
f 176/1/4 171/1/4 177/1/4
f 178/2/4 179/2/4 182/2/4
f 182/2/4 179/2/4 183/2/4
f 180/2/4 181/2/4 184/2/4
f 184/2/4 181/2/4 185/2/4
f 186/2/4 187/2/4 189/2/4
f 189/2/4 187/2/4 190/2/4
f 188/2/4 189/2/4 193/2/4
f 190/2/4 191/2/4 193/2/4
f 189/2/4 190/2/4 193/2/4
f 192/2/4 193/2/4 194/2/4
f 193/2/4 191/2/4 195/2/4
f 194/2/4 193/2/4 195/2/4
f 195/2/4 191/2/4 196/2/4
f 196/2/4 191/2/4 197/2/4
f 195/2/4 196/2/4 198/2/4
f 198/2/4 196/2/4 199/2/4
f 200/1/4 201/1/4 203/1/4
f 201/3/4 202/3/4 204/3/4
f 203/1/4 201/1/4 204/1/4
f 204/3/4 202/3/4 205/3/4
f 208/1/5 207/1/5 206/1/5
f 209/1/5 207/1/5 208/1/5
f 212/1/5 211/1/5 210/1/5
f 213/1/5 211/1/5 212/1/5
f 216/1/5 215/1/5 214/1/5
f 217/1/5 215/1/5 216/1/5
f 222/2/5 219/2/5 218/2/5
f 223/2/5 219/2/5 222/2/5
f 226/2/5 224/2/5 223/2/5
f 227/2/5 221/2/5 220/2/5
f 228/2/5 221/2/5 227/2/5
f 229/1/5 226/1/5 225/1/5
f 230/2/5 224/2/5 226/2/5
f 230/1/5 226/1/5 229/1/5
f 231/2/5 224/2/5 230/2/5
f 232/2/5 230/2/5 229/2/5
f 233/2/5 230/2/5 232/2/5
f 238/2/5 235/2/5 234/2/5
f 239/2/5 235/2/5 238/2/5
f 240/2/5 237/2/5 236/2/5
f 241/2/5 237/2/5 240/2/5
f 246/2/5 243/2/5 242/2/5
f 247/2/5 243/2/5 246/2/5
f 248/2/5 245/2/5 244/2/5
f 249/2/5 245/2/5 248/2/5
f 252/2/5 251/2/5 250/2/5
f 253/2/5 251/2/5 252/2/5
f 256/2/5 255/2/5 254/2/5
f 257/2/5 255/2/5 256/2/5
f 260/2/5 259/2/5 258/2/5
f 261/2/5 259/2/5 260/2/5
f 262/3/6 263/3/6 264/3/6
f 264/3/6 263/3/6 265/3/6
f 262/3/6 264/3/6 266/3/6
f 265/3/6 263/3/6 267/3/6
f 262/3/6 266/3/6 268/3/6
f 266/3/6 267/3/6 268/3/6
f 267/3/6 263/3/6 269/3/6
f 268/3/6 267/3/6 269/3/6
f 270/2/6 271/2/6 272/2/6
f 272/2/6 271/2/6 273/2/6
f 274/2/6 275/2/6 276/2/6
f 276/2/6 275/2/6 277/2/6
f 278/2/6 279/2/6 280/2/6
f 280/2/6 279/2/6 281/2/6
f 283/2/6 284/2/6 285/2/6
f 285/2/6 284/2/6 286/2/6
f 281/2/6 282/2/6 288/2/6
f 288/2/6 282/2/6 289/2/6
f 286/2/6 287/2/6 290/2/6
f 290/2/6 287/2/6 291/2/6
f 292/2/6 293/2/6 295/2/6
f 295/2/6 293/2/6 296/2/6
f 294/2/6 295/2/6 298/2/6
f 296/2/6 297/2/6 298/2/6
f 295/2/6 296/2/6 298/2/6
f 298/2/6 297/2/6 299/2/6
f 299/2/6 297/2/6 300/2/6
f 300/2/6 297/2/6 301/2/6
f 301/2/6 297/2/6 302/2/6
f 302/2/6 297/2/6 303/2/6
