# MagicaVoxel @ Ephtracy

# group
o 

# material
mtllib tile_03.mtl
usemtl palette

# normals
vn -1 0 0
vn 1 0 0
vn 0 0 1
vn 0 0 -1
vn 0 -1 0
vn 0 1 0

# texcoords
vt 0.0253906 0.5
vt 0.0292969 0.5
vt 0.537109 0.5
vt 0.912109 0.5

# verts
v -0.5 0 0.5
v -0.5 0 -0.5
v -0.5 0.1 0.5
v -0.5 0.1 -0.5
v -0.5 0.2 0.5
v -0.5 0.2 -0.5
v -0.1 0.2 -0.1
v -0.1 0.2 -0.2
v -0.1 0.4 0
v -0.1 0.4 -0.1
v -0.1 0.5 0
v -0.1 0.5 -0.1
v -0.1 0.6 -0.1
v -0.1 0.6 -0.2
v 0 0.2 -0.1
v 0 0.2 -0.2
v 0 0.4 0
v 0 0.4 -0.1
v 0 0.4 -0.2
v 0 0.5 0
v 0 0.5 -0.1
v 0 0.5 -0.2
v 0 0.6 -0.1
v 0 0.6 -0.2
v 0.1 0.4 -0.1
v 0.1 0.4 -0.2
v 0.1 0.5 -0.1
v 0.1 0.5 -0.2
v 0.5 0 0.5
v 0.5 0 -0.5
v 0.5 0.1 0.5
v 0.5 0.1 0.1
v 0.5 0.1 -0.1
v 0.5 0.1 -0.5
v 0.5 0.2 0.5
v 0.5 0.2 0.1
v 0.5 0.2 -0.1
v 0.5 0.2 -0.5
v -0.5 0 0.5
v -0.5 0.1 0.5
v -0.5 0.2 0.5
v -0.1 0.1 0.5
v -0.1 0.2 0.5
v 0.1 0.1 0.5
v 0.1 0.2 0.5
v 0.5 0 0.5
v 0.5 0.1 0.5
v 0.5 0.2 0.5
v -0.1 0.4 0
v -0.1 0.5 0
v 0 0.4 0
v 0 0.5 0
v -0.1 0.2 -0.1
v -0.1 0.4 -0.1
v -0.1 0.5 -0.1
v -0.1 0.6 -0.1
v 0 0.2 -0.1
v 0 0.4 -0.1
v 0 0.5 -0.1
v 0 0.6 -0.1
v 0.1 0.4 -0.1
v 0.1 0.5 -0.1
v -0.1 0.2 -0.2
v -0.1 0.6 -0.2
v 0 0.2 -0.2
v 0 0.4 -0.2
v 0 0.5 -0.2
v 0 0.6 -0.2
v 0.1 0.4 -0.2
v 0.1 0.5 -0.2
v -0.5 0 -0.5
v -0.5 0.1 -0.5
v -0.5 0.2 -0.5
v 0.5 0 -0.5
v 0.5 0.1 -0.5
v 0.5 0.2 -0.5
v -0.5 0 0.5
v 0.5 0 0.5
v -0.5 0 -0.5
v 0.5 0 -0.5
v -0.1 0.4 0
v 0 0.4 0
v -0.1 0.4 -0.1
v 0 0.4 -0.1
v 0.1 0.4 -0.1
v 0 0.4 -0.2
v 0.1 0.4 -0.2
v -0.5 0.2 0.5
v -0.1 0.2 0.5
v 0.1 0.2 0.5
v 0.5 0.2 0.5
v -0.2 0.2 0.4
v -0.1 0.2 0.4
v -0.2 0.2 0.2
v -0.1 0.2 0.2
v 0.2 0.2 0.2
v 0.4 0.2 0.2
v 0.1 0.2 0.1
v 0.2 0.2 0.1
v 0.4 0.2 0.1
v 0.5 0.2 0.1
v -0.2 0.2 0
v -0.1 0.2 0
v -0.1 0.2 -0.1
v 0 0.2 -0.1
v 0.3 0.2 -0.1
v 0.5 0.2 -0.1
v -0.2 0.2 -0.2
v -0.1 0.2 -0.2
v 0 0.2 -0.2
v 0.3 0.2 -0.2
v -0.5 0.2 -0.5
v 0.5 0.2 -0.5
v -0.1 0.5 0
v 0 0.5 0
v -0.1 0.5 -0.1
v 0 0.5 -0.1
v 0.1 0.5 -0.1
v 0 0.5 -0.2
v 0.1 0.5 -0.2
v -0.1 0.6 -0.1
v 0 0.6 -0.1
v -0.1 0.6 -0.2
v 0 0.6 -0.2

# faces
f 3/2/1 2/2/1 1/2/1
f 4/2/1 2/2/1 3/2/1
f 5/4/1 4/4/1 3/4/1
f 6/4/1 4/4/1 5/4/1
f 10/3/1 8/3/1 7/3/1
f 11/3/1 10/3/1 9/3/1
f 12/3/1 8/3/1 10/3/1
f 12/3/1 10/3/1 11/3/1
f 13/3/1 8/3/1 12/3/1
f 14/3/1 8/3/1 13/3/1
f 15/3/2 16/3/2 18/3/2
f 18/3/2 16/3/2 19/3/2
f 17/3/2 18/3/2 20/3/2
f 20/3/2 18/3/2 21/3/2
f 21/3/2 22/3/2 23/3/2
f 23/3/2 22/3/2 24/3/2
f 25/3/2 26/3/2 27/3/2
f 27/3/2 26/3/2 28/3/2
f 29/2/2 30/2/2 31/2/2
f 31/2/2 30/2/2 32/2/2
f 32/2/2 30/2/2 33/2/2
f 33/2/2 30/2/2 34/2/2
f 31/4/2 32/4/2 35/4/2
f 32/1/2 33/1/2 36/1/2
f 35/4/2 32/4/2 36/4/2
f 33/4/2 34/4/2 37/4/2
f 36/1/2 33/1/2 37/1/2
f 37/4/2 34/4/2 38/4/2
f 42/2/3 40/2/3 39/2/3
f 42/4/3 41/4/3 40/4/3
f 43/4/3 41/4/3 42/4/3
f 44/2/3 42/2/3 39/2/3
f 44/1/3 43/1/3 42/1/3
f 45/1/3 43/1/3 44/1/3
f 46/2/3 44/2/3 39/2/3
f 47/4/3 45/4/3 44/4/3
f 47/2/3 44/2/3 46/2/3
f 48/4/3 45/4/3 47/4/3
f 51/3/3 50/3/3 49/3/3
f 52/3/3 50/3/3 51/3/3
f 57/3/3 54/3/3 53/3/3
f 58/3/3 54/3/3 57/3/3
f 59/3/3 56/3/3 55/3/3
f 60/3/3 56/3/3 59/3/3
f 61/3/3 59/3/3 58/3/3
f 62/3/3 59/3/3 61/3/3
f 63/3/4 64/3/4 65/3/4
f 65/3/4 64/3/4 66/3/4
f 66/3/4 64/3/4 67/3/4
f 67/3/4 64/3/4 68/3/4
f 66/3/4 67/3/4 69/3/4
f 69/3/4 67/3/4 70/3/4
f 71/2/4 72/2/4 74/2/4
f 72/4/4 73/4/4 75/4/4
f 74/2/4 72/2/4 75/2/4
f 75/4/4 73/4/4 76/4/4
f 79/2/5 78/2/5 77/2/5
f 80/2/5 78/2/5 79/2/5
f 83/3/5 82/3/5 81/3/5
f 84/3/5 82/3/5 83/3/5
f 86/3/5 85/3/5 84/3/5
f 87/3/5 85/3/5 86/3/5
f 88/4/6 89/4/6 92/4/6
f 89/1/6 90/1/6 93/1/6
f 92/4/6 89/4/6 93/4/6
f 88/4/6 92/4/6 94/4/6
f 92/1/6 93/1/6 94/1/6
f 93/1/6 90/1/6 95/1/6
f 94/1/6 93/1/6 95/1/6
f 90/4/6 91/4/6 96/4/6
f 96/4/6 91/4/6 97/4/6
f 95/1/6 90/1/6 98/1/6
f 90/4/6 96/4/6 98/4/6
f 96/1/6 97/1/6 99/1/6
f 98/4/6 96/4/6 99/4/6
f 97/4/6 91/4/6 100/4/6
f 99/1/6 97/1/6 100/1/6
f 100/4/6 91/4/6 101/4/6
f 88/4/6 94/4/6 102/4/6
f 94/4/6 95/4/6 102/4/6
f 98/1/6 99/1/6 103/1/6
f 102/4/6 95/4/6 103/4/6
f 100/1/6 101/1/6 103/1/6
f 99/1/6 100/1/6 103/1/6
f 95/1/6 98/1/6 103/1/6
f 102/1/6 103/1/6 104/1/6
f 103/1/6 101/1/6 104/1/6
f 104/1/6 101/1/6 105/1/6
f 105/1/6 101/1/6 106/1/6
f 106/1/6 101/1/6 107/1/6
f 88/4/6 102/4/6 108/4/6
f 102/1/6 104/1/6 108/1/6
f 108/1/6 104/1/6 109/1/6
f 105/1/6 106/1/6 110/1/6
f 106/4/6 107/4/6 111/4/6
f 110/1/6 106/1/6 111/1/6
f 109/4/6 110/4/6 112/4/6
f 108/4/6 109/4/6 112/4/6
f 110/4/6 111/4/6 112/4/6
f 88/4/6 108/4/6 112/4/6
f 111/4/6 107/4/6 113/4/6
f 112/4/6 111/4/6 113/4/6
f 114/3/6 115/3/6 116/3/6
f 116/3/6 115/3/6 117/3/6
f 117/3/6 118/3/6 119/3/6
f 119/3/6 118/3/6 120/3/6
f 121/3/6 122/3/6 123/3/6
f 123/3/6 122/3/6 124/3/6
