# Blender v2.82 (sub 7) OBJ File: ''
# www.blender.org
mtllib tile_02.mtl
o ObjObject.001
v -0.500000 -0.400000 0.400000
v -0.500000 -0.500000 -0.500000
v -0.500000 -0.500000 0.500000
v -0.500000 -0.400000 -0.400000
v -0.500000 0.400000 0.400000
v -0.500000 0.400000 -0.400000
v -0.500000 0.500000 0.500000
v -0.500000 0.400000 0.300000
v -0.500000 0.500000 0.300000
v -0.500000 0.500000 -0.300000
v -0.500000 0.400000 -0.300000
v -0.500000 0.500000 -0.500000
v 0.400000 -0.300000 0.200000
v 0.400000 -0.400000 -0.500000
v 0.400000 -0.400000 0.500000
v 0.400000 -0.300000 -0.200000
v 0.400000 0.400000 0.200000
v 0.400000 0.400000 -0.200000
v 0.400000 0.500000 0.500000
v 0.400000 0.500000 -0.500000
v -0.400000 -0.400000 0.500000
v -0.400000 -0.400000 0.400000
v -0.400000 0.400000 0.500000
v -0.400000 0.400000 0.400000
v -0.400000 -0.400000 -0.400000
v -0.400000 -0.400000 -0.500000
v -0.400000 0.400000 -0.400000
v -0.400000 0.400000 -0.500000
v -0.300000 0.400000 0.500000
v -0.300000 0.400000 0.300000
v -0.300000 0.500000 0.500000
v -0.300000 0.500000 0.300000
v -0.300000 0.400000 -0.300000
v -0.300000 0.400000 -0.500000
v -0.300000 0.500000 -0.300000
v -0.300000 0.500000 -0.500000
v 0.500000 -0.500000 0.500000
v 0.500000 -0.500000 -0.500000
v 0.500000 -0.300000 0.200000
v 0.500000 -0.300000 -0.200000
v 0.500000 0.400000 0.200000
v 0.500000 0.400000 -0.200000
v 0.500000 0.500000 0.500000
v 0.500000 0.500000 -0.500000
v -0.400000 -0.400000 0.500000
v -0.500000 0.500000 0.500000
v -0.500000 -0.500000 0.500000
v -0.400000 0.400000 0.500000
v -0.300000 0.400000 0.500000
v -0.300000 0.500000 0.500000
v 0.400000 -0.400000 0.500000
v 0.500000 -0.500000 0.500000
v 0.400000 0.500000 0.500000
v 0.500000 0.500000 0.500000
v 0.500000 -0.300000 -0.200000
v 0.400000 0.400000 -0.200000
v 0.400000 -0.300000 -0.200000
v 0.500000 0.400000 -0.200000
v -0.300000 0.400000 -0.300000
v -0.500000 0.500000 -0.300000
v -0.500000 0.400000 -0.300000
v -0.300000 0.500000 -0.300000
v -0.400000 -0.400000 -0.400000
v -0.500000 0.400000 -0.400000
v -0.500000 -0.400000 -0.400000
v -0.400000 0.400000 -0.400000
v -0.500000 -0.400000 0.400000
v -0.500000 0.400000 0.400000
v -0.400000 -0.400000 0.400000
v -0.400000 0.400000 0.400000
v -0.500000 0.400000 0.300000
v -0.500000 0.500000 0.300000
v -0.300000 0.400000 0.300000
v -0.300000 0.500000 0.300000
v 0.400000 -0.300000 0.200000
v 0.400000 0.400000 0.200000
v 0.500000 -0.300000 0.200000
v 0.500000 0.400000 0.200000
v -0.500000 -0.500000 -0.500000
v -0.500000 0.500000 -0.500000
v -0.400000 -0.400000 -0.500000
v -0.400000 0.400000 -0.500000
v -0.300000 0.400000 -0.500000
v -0.300000 0.500000 -0.500000
v 0.400000 -0.400000 -0.500000
v 0.500000 -0.500000 -0.500000
v 0.400000 0.500000 -0.500000
v 0.500000 0.500000 -0.500000
v -0.500000 -0.500000 -0.500000
v 0.500000 -0.500000 0.500000
v -0.500000 -0.500000 0.500000
v 0.500000 -0.500000 -0.500000
v -0.400000 0.400000 0.400000
v -0.300000 0.400000 0.500000
v -0.400000 0.400000 0.500000
v -0.500000 0.400000 0.300000
v -0.500000 0.400000 0.400000
v -0.300000 0.400000 0.300000
v 0.400000 0.400000 -0.200000
v 0.500000 0.400000 0.200000
v 0.400000 0.400000 0.200000
v 0.500000 0.400000 -0.200000
v -0.500000 0.400000 -0.400000
v -0.300000 0.400000 -0.300000
v -0.500000 0.400000 -0.300000
v -0.400000 0.400000 -0.400000
v -0.400000 0.400000 -0.500000
v -0.300000 0.400000 -0.500000
v -0.400000 -0.400000 0.500000
v 0.400000 -0.400000 0.500000
v -0.400000 -0.400000 0.400000
v -0.500000 -0.400000 0.400000
v -0.500000 -0.400000 -0.400000
v -0.400000 -0.400000 -0.400000
v -0.400000 -0.400000 -0.500000
v 0.400000 -0.400000 -0.500000
v 0.400000 -0.300000 0.200000
v 0.500000 -0.300000 0.200000
v 0.400000 -0.300000 -0.200000
v 0.500000 -0.300000 -0.200000
v -0.500000 0.500000 0.500000
v -0.300000 0.500000 0.500000
v -0.500000 0.500000 0.300000
v -0.300000 0.500000 0.300000
v -0.500000 0.500000 -0.300000
v -0.300000 0.500000 -0.300000
v -0.500000 0.500000 -0.500000
v -0.300000 0.500000 -0.500000
v 0.400000 0.500000 0.500000
v 0.500000 0.500000 0.500000
v 0.400000 0.500000 -0.500000
v 0.500000 0.500000 -0.500000
vt 0.978516 0.500000
vt 0.978516 0.500000
vt 0.978516 0.500000
vt 0.978516 0.500000
vt 0.978516 0.500000
vt 0.978516 0.500000
vt 0.978516 0.500000
vt 0.978516 0.500000
vt 0.978516 0.500000
vt 0.978516 0.500000
vt 0.978516 0.500000
vt 0.978516 0.500000
vt 0.978516 0.500000
vt 0.978516 0.500000
vt 0.978516 0.500000
vt 0.978516 0.500000
vt 0.978516 0.500000
vt 0.978516 0.500000
vt 0.978516 0.500000
vt 0.978516 0.500000
vt 0.978516 0.500000
vt 0.978516 0.500000
vt 0.978516 0.500000
vt 0.978516 0.500000
vt 0.978516 0.500000
vt 0.978516 0.500000
vt 0.978516 0.500000
vt 0.978516 0.500000
vt 0.978516 0.500000
vt 0.978516 0.500000
vt 0.978516 0.500000
vt 0.978516 0.500000
vt 0.978516 0.500000
vt 0.978516 0.500000
vt 0.978516 0.500000
vt 0.978516 0.500000
vt 0.978516 0.500000
vt 0.978516 0.500000
vt 0.978516 0.500000
vt 0.978516 0.500000
vt 0.978516 0.500000
vt 0.978516 0.500000
vt 0.978516 0.500000
vt 0.978516 0.500000
vt 0.978516 0.500000
vt 0.978516 0.500000
vt 0.978516 0.500000
vt 0.978516 0.500000
vt 0.978516 0.500000
vt 0.978516 0.500000
vt 0.978516 0.500000
vt 0.978516 0.500000
vt 0.978516 0.500000
vt 0.978516 0.500000
vt 0.978516 0.500000
vt 0.978516 0.500000
vt 0.978516 0.500000
vt 0.978516 0.500000
vt 0.978516 0.500000
vt 0.978516 0.500000
vt 0.978516 0.500000
vt 0.978516 0.500000
vt 0.978516 0.500000
vt 0.978516 0.500000
vt 0.978516 0.500000
vt 0.978516 0.500000
vt 0.978516 0.500000
vt 0.978516 0.500000
vt 0.978516 0.500000
vt 0.978516 0.500000
vt 0.978516 0.500000
vt 0.978516 0.500000
vt 0.978516 0.500000
vt 0.978516 0.500000
vt 0.978516 0.500000
vt 0.978516 0.500000
vt 0.978516 0.500000
vt 0.978516 0.500000
vt 0.978516 0.500000
vt 0.978516 0.500000
vt 0.978516 0.500000
vt 0.978516 0.500000
vt 0.978516 0.500000
vt 0.978516 0.500000
vt 0.978516 0.500000
vt 0.978516 0.500000
vt 0.978516 0.500000
vt 0.978516 0.500000
vt 0.978516 0.500000
vt 0.978516 0.500000
vt 0.978516 0.500000
vt 0.978516 0.500000
vt 0.978516 0.500000
vt 0.978516 0.500000
vt 0.978516 0.500000
vt 0.978516 0.500000
vt 0.978516 0.500000
vt 0.978516 0.500000
vt 0.978516 0.500000
vt 0.978516 0.500000
vt 0.978516 0.500000
vt 0.978516 0.500000
vt 0.978516 0.500000
vt 0.978516 0.500000
vt 0.978516 0.500000
vt 0.978516 0.500000
vt 0.978516 0.500000
vt 0.978516 0.500000
vt 0.978516 0.500000
vt 0.978516 0.500000
vt 0.978516 0.500000
vt 0.978516 0.500000
vt 0.978516 0.500000
vt 0.978516 0.500000
vt 0.978516 0.500000
vt 0.978516 0.500000
vt 0.978516 0.500000
vt 0.978516 0.500000
vt 0.978516 0.500000
vt 0.978516 0.500000
vt 0.978516 0.500000
vt 0.978516 0.500000
vt 0.978516 0.500000
vt 0.978516 0.500000
vt 0.978516 0.500000
vt 0.978516 0.500000
vt 0.978516 0.500000
vt 0.978516 0.500000
vt 0.978516 0.500000
vt 0.978516 0.500000
vt 0.978516 0.500000
vt 0.978516 0.500000
vn -1.0000 0.0000 0.0000
vn 1.0000 -0.0000 0.0000
vn 0.0000 -0.0000 1.0000
vn 0.0000 0.0000 -1.0000
vn 0.0000 -1.0000 -0.0000
vn 0.0000 1.0000 0.0000
usemtl palette.001
s 1
f 1/1/1 2/2/1 3/3/1
f 4/4/1 2/2/1 1/1/1
f 5/5/1 1/1/1 3/3/1
f 6/6/1 2/2/1 4/4/1
f 7/7/1 8/8/1 5/5/1
f 7/7/1 5/5/1 3/3/1
f 9/9/1 8/8/1 7/7/1
f 10/10/1 6/6/1 11/11/1
f 12/12/1 2/2/1 6/6/1
f 12/12/1 6/6/1 10/10/1
f 13/13/1 14/14/1 15/15/1
f 16/16/1 14/14/1 13/13/1
f 17/17/1 13/13/1 15/15/1
f 18/18/1 14/14/1 16/16/1
f 19/19/1 17/17/1 15/15/1
f 19/19/1 18/18/1 17/17/1
f 20/20/1 14/14/1 18/18/1
f 20/20/1 18/18/1 19/19/1
f 21/21/2 22/22/2 23/23/2
f 23/23/2 22/22/2 24/24/2
f 25/25/2 26/26/2 27/27/2
f 27/27/2 26/26/2 28/28/2
f 29/29/2 30/30/2 31/31/2
f 31/31/2 30/30/2 32/32/2
f 33/33/2 34/34/2 35/35/2
f 35/35/2 34/34/2 36/36/2
f 37/37/2 38/38/2 39/39/2
f 39/39/2 38/38/2 40/40/2
f 37/37/2 39/39/2 41/41/2
f 40/40/2 38/38/2 42/42/2
f 37/37/2 41/41/2 43/43/2
f 41/41/2 42/42/2 43/43/2
f 42/42/2 38/38/2 44/44/2
f 43/43/2 42/42/2 44/44/2
f 45/45/3 46/46/3 47/47/3
f 48/48/3 46/46/3 45/45/3
f 49/49/3 46/46/3 48/48/3
f 50/50/3 46/46/3 49/49/3
f 51/51/3 45/45/3 47/47/3
f 52/52/3 51/51/3 47/47/3
f 52/52/3 53/53/3 51/51/3
f 54/54/3 53/53/3 52/52/3
f 55/55/3 56/56/3 57/57/3
f 58/58/3 56/56/3 55/55/3
f 59/59/3 60/60/3 61/61/3
f 62/62/3 60/60/3 59/59/3
f 63/63/3 64/64/3 65/65/3
f 66/66/3 64/64/3 63/63/3
f 67/67/4 68/68/4 69/69/4
f 69/69/4 68/68/4 70/70/4
f 71/71/4 72/72/4 73/73/4
f 73/73/4 72/72/4 74/74/4
f 75/75/4 76/76/4 77/77/4
f 77/77/4 76/76/4 78/78/4
f 79/79/4 80/80/4 81/81/4
f 81/81/4 80/80/4 82/82/4
f 82/82/4 80/80/4 83/83/4
f 83/83/4 80/80/4 84/84/4
f 79/79/4 81/81/4 85/85/4
f 79/79/4 85/85/4 86/86/4
f 85/85/4 87/87/4 86/86/4
f 86/86/4 87/87/4 88/88/4
f 89/89/5 90/90/5 91/91/5
f 92/92/5 90/90/5 89/89/5
f 93/93/5 94/94/5 95/95/5
f 96/96/5 93/93/5 97/97/5
f 98/98/5 94/94/5 93/93/5
f 98/98/5 93/93/5 96/96/5
f 99/99/5 100/100/5 101/101/5
f 102/102/5 100/100/5 99/99/5
f 103/103/5 104/104/5 105/105/5
f 106/106/5 104/104/5 103/103/5
f 107/107/5 104/104/5 106/106/5
f 108/108/5 104/104/5 107/107/5
f 109/109/6 110/110/6 111/111/6
f 112/112/6 111/111/6 113/113/6
f 111/111/6 110/110/6 114/114/6
f 113/113/6 111/111/6 114/114/6
f 114/114/6 110/110/6 115/115/6
f 115/115/6 110/110/6 116/116/6
f 117/117/6 118/118/6 119/119/6
f 119/119/6 118/118/6 120/120/6
f 121/121/6 122/122/6 123/123/6
f 123/123/6 122/122/6 124/124/6
f 125/125/6 126/126/6 127/127/6
f 127/127/6 126/126/6 128/128/6
f 129/129/6 130/130/6 131/131/6
f 131/131/6 130/130/6 132/132/6
